NunitoSans-ExtraLightItalic.ufo
<glyph name="dollar" format="2">
  <advance width="600"/>
  <unicode hex="0024"/>
  <outline>
    <contour>
      <point x="233" y="-115" type="line"/>
      <point x="273" y="-115" type="line"/>
      <point x="293" y="10" type="line"/>
      <point x="278" y="-4" type="line"/>
      <point x="412" y="-6"/>
      <point x="527" y="63"/>
      <point x="527" y="184" type="curve" smooth="yes"/>
      <point x="527" y="273"/>
      <point x="474" y="324"/>
      <point x="340" y="361" type="curve" smooth="yes"/>
      <point x="259" y="383" type="line" smooth="yes"/>
      <point x="184" y="403"/>
      <point x="145" y="434"/>
      <point x="145" y="517" type="curve" smooth="yes"/>
      <point x="145" y="615"/>
      <point x="226" y="668"/>
      <point x="351" y="668" type="curve" smooth="yes"/>
      <point x="429" y="668"/>
      <point x="497" y="644"/>
      <point x="556" y="578" type="curve"/>
      <point x="579" y="612" type="line"/>
      <point x="533" y="666"/>
      <point x="467" y="697"/>
      <point x="397" y="706" type="curve"/>
      <point x="401" y="698" type="line"/>
      <point x="421" y="820" type="line"/>
      <point x="381" y="820" type="line"/>
      <point x="362" y="700" type="line"/>
      <point x="369" y="709" type="line"/>
      <point x="220" y="715"/>
      <point x="101" y="646"/>
      <point x="101" y="517" type="curve" smooth="yes"/>
      <point x="101" y="412"/>
      <point x="160" y="367"/>
      <point x="250" y="343" type="curve" smooth="yes"/>
      <point x="331" y="321" type="line" smooth="yes"/>
      <point x="448" y="289"/>
      <point x="483" y="252"/>
      <point x="483" y="180" type="curve" smooth="yes"/>
      <point x="483" y="86"/>
      <point x="394" y="37"/>
      <point x="288" y="37" type="curve" smooth="yes"/>
      <point x="188" y="37"/>
      <point x="126" y="56"/>
      <point x="56" y="118" type="curve"/>
      <point x="33" y="83" type="line"/>
      <point x="94" y="24"/>
      <point x="171" y="0"/>
      <point x="263" y="-4" type="curve"/>
      <point x="253" y="8" type="line"/>
    </contour>
  </outline>
</glyph>
<glyph name="percent" format="2">
  <advance width="916"/>
  <unicode hex="0025"/>
  <outline>
    <contour>
      <point x="225" y="-22" type="line"/>
      <point x="758" y="703" type="line"/>
      <point x="726" y="727" type="line"/>
      <point x="193" y="2" type="line"/>
    </contour>
    <contour>
      <point x="239" y="282" type="curve" smooth="yes"/>
      <point x="372" y="282"/>
      <point x="442" y="406"/>
      <point x="442" y="554" type="curve" smooth="yes"/>
      <point x="442" y="654"/>
      <point x="389" y="713"/>
      <point x="305" y="713" type="curve" smooth="yes"/>
      <point x="172" y="713"/>
      <point x="102" y="589"/>
      <point x="102" y="441" type="curve" smooth="yes"/>
      <point x="102" y="341"/>
      <point x="155" y="282"/>
    </contour>
    <contour>
      <point x="239" y="319" type="curve" smooth="yes"/>
      <point x="182" y="319"/>
      <point x="141" y="358"/>
      <point x="144" y="447" type="curve" smooth="yes"/>
      <point x="148" y="576"/>
      <point x="199" y="676"/>
      <point x="305" y="676" type="curve" smooth="yes"/>
      <point x="362" y="676"/>
      <point x="403" y="637"/>
      <point x="400" y="548" type="curve" smooth="yes"/>
      <point x="396" y="419"/>
      <point x="345" y="319"/>
    </contour>
    <contour>
      <point x="646" y="-8" type="curve" smooth="yes"/>
      <point x="779" y="-8"/>
      <point x="849" y="116"/>
      <point x="849" y="264" type="curve" smooth="yes"/>
      <point x="849" y="364"/>
      <point x="796" y="423"/>
      <point x="712" y="423" type="curve" smooth="yes"/>
      <point x="579" y="423"/>
      <point x="509" y="299"/>
      <point x="509" y="151" type="curve" smooth="yes"/>
      <point x="509" y="51"/>
      <point x="562" y="-8"/>
    </contour>
    <contour>
      <point x="646" y="29" type="curve" smooth="yes"/>
      <point x="589" y="29"/>
      <point x="548" y="68"/>
      <point x="551" y="157" type="curve" smooth="yes"/>
      <point x="555" y="286"/>
      <point x="606" y="386"/>
      <point x="712" y="386" type="curve" smooth="yes"/>
      <point x="769" y="386"/>
      <point x="810" y="347"/>
      <point x="807" y="258" type="curve" smooth="yes"/>
      <point x="803" y="129"/>
      <point x="752" y="29"/>
    </contour>
  </outline>
</glyph>
<glyph name="quotesingle" format="2">
  <advance width="202"/>
  <unicode hex="0027"/>
  <outline>
    <contour>
      <point x="119" y="440" type="line"/>
      <point x="147" y="440" type="line"/>
      <point x="200" y="705" type="line"/>
      <point x="148" y="705" type="line"/>
    </contour>
  </outline>
</glyph>
<glyph name="parenleft" format="2">
  <advance width="281"/>
  <unicode hex="0028"/>
  <outline>
    <contour>
      <point x="142" y="-190" type="curve"/>
      <point x="177" y="-178" type="line"/>
      <point x="157" y="-83"/>
      <point x="146" y="12"/>
      <point x="146" y="100" type="curve" smooth="yes"/>
      <point x="146" y="328"/>
      <point x="213" y="527"/>
      <point x="318" y="699" type="curve"/>
      <point x="285" y="716" type="line"/>
      <point x="175" y="560"/>
      <point x="102" y="335"/>
      <point x="102" y="102" type="curve" smooth="yes"/>
      <point x="102" y="6"/>
      <point x="117" y="-91"/>
    </contour>
  </outline>
</glyph>
<glyph name="parenright" format="2">
  <advance width="281"/>
  <unicode hex="0029"/>
  <outline>
    <contour>
      <point x="2" y="-190" type="line"/>
      <point x="112" y="-34"/>
      <point x="185" y="191"/>
      <point x="185" y="424" type="curve" smooth="yes"/>
      <point x="185" y="520"/>
      <point x="170" y="617"/>
      <point x="145" y="716" type="curve"/>
      <point x="110" y="704" type="line"/>
      <point x="130" y="609"/>
      <point x="141" y="514"/>
      <point x="141" y="426" type="curve" smooth="yes"/>
      <point x="141" y="198"/>
      <point x="74" y="-1"/>
      <point x="-31" y="-173" type="curve"/>
    </contour>
  </outline>
</glyph>
<glyph name="slash" format="2">
  <advance width="256"/>
  <unicode hex="002F"/>
  <outline>
    <contour>
      <point x="-28" y="-58" type="line"/>
      <point x="349" y="727" type="line"/>
      <point x="314" y="746" type="line"/>
      <point x="-62" y="-39" type="line"/>
    </contour>
  </outline>
</glyph>
<glyph name="zero" format="2">
  <advance width="600"/>
  <unicode hex="0030"/>
  <outline>
    <contour>
      <point x="289" y="-8" type="curve" smooth="yes"/>
      <point x="455" y="-8"/>
      <point x="559" y="168"/>
      <point x="559" y="460" type="curve" smooth="yes"/>
      <point x="559" y="624"/>
      <point x="487" y="713"/>
      <point x="347" y="713" type="curve" smooth="yes"/>
      <point x="181" y="713"/>
      <point x="76" y="537"/>
      <point x="76" y="245" type="curve" smooth="yes"/>
      <point x="76" y="81"/>
      <point x="149" y="-8"/>
    </contour>
    <contour>
      <point x="292" y="33" type="curve" smooth="yes"/>
      <point x="177" y="33"/>
      <point x="121" y="98"/>
      <point x="121" y="227" type="curve" smooth="yes"/>
      <point x="121" y="513"/>
      <point x="205" y="672"/>
      <point x="344" y="672" type="curve" smooth="yes"/>
      <point x="459" y="672"/>
      <point x="514" y="607"/>
      <point x="514" y="478" type="curve" smooth="yes"/>
      <point x="514" y="192"/>
      <point x="431" y="33"/>
    </contour>
  </outline>
</glyph>
<glyph name="one" format="2">
  <advance width="600"/>
  <unicode hex="0031"/>
  <outline>
    <contour>
      <point x="100" y="0" type="line"/>
      <point x="456" y="0" type="line"/>
      <point x="462" y="39" type="line"/>
      <point x="310" y="39" type="line"/>
      <point x="416" y="705" type="line"/>
      <point x="386" y="705" type="line"/>
      <point x="206" y="595" type="line"/>
      <point x="223" y="560" type="line"/>
      <point x="397" y="665" type="line"/>
      <point x="368" y="668" type="line"/>
      <point x="268" y="39" type="line"/>
      <point x="106" y="39" type="line"/>
    </contour>
  </outline>
</glyph>
<glyph name="eight" format="2">
  <advance width="600"/>
  <unicode hex="0038"/>
  <outline>
    <contour>
      <point x="267" y="-8" type="curve" smooth="yes"/>
      <point x="424" y="-8"/>
      <point x="536" y="69"/>
      <point x="536" y="209" type="curve" smooth="yes"/>
      <point x="536" y="292"/>
      <point x="481" y="348"/>
      <point x="400" y="359" type="curve"/>
      <point x="398" y="352" type="line"/>
      <point x="497" y="366"/>
      <point x="573" y="445"/>
      <point x="573" y="549" type="curve" smooth="yes"/>
      <point x="573" y="648"/>
      <point x="486" y="713"/>
      <point x="367" y="713" type="curve" smooth="yes"/>
      <point x="221" y="713"/>
      <point x="116" y="638"/>
      <point x="116" y="507" type="curve" smooth="yes"/>
      <point x="116" y="432"/>
      <point x="158" y="376"/>
      <point x="234" y="359" type="curve"/>
      <point x="236" y="364" type="line"/>
      <point x="127" y="358"/>
      <point x="46" y="267"/>
      <point x="46" y="155" type="curve" smooth="yes"/>
      <point x="46" y="54"/>
      <point x="140" y="-8"/>
    </contour>
    <contour>
      <point x="269" y="32" type="curve" smooth="yes"/>
      <point x="162" y="32"/>
      <point x="90" y="74"/>
      <point x="90" y="159" type="curve" smooth="yes"/>
      <point x="90" y="278"/>
      <point x="178" y="337"/>
      <point x="316" y="337" type="curve" smooth="yes"/>
      <point x="421" y="337"/>
      <point x="492" y="296"/>
      <point x="492" y="212" type="curve" smooth="yes"/>
      <point x="492" y="92"/>
      <point x="407" y="32"/>
    </contour>
    <contour>
      <point x="321" y="377" type="curve" smooth="yes"/>
      <point x="223" y="377"/>
      <point x="160" y="423"/>
      <point x="160" y="505" type="curve" smooth="yes"/>
      <point x="160" y="617"/>
      <point x="238" y="673"/>
      <point x="366" y="673" type="curve" smooth="yes"/>
      <point x="465" y="673"/>
      <point x="529" y="628"/>
      <point x="529" y="548" type="curve" smooth="yes"/>
      <point x="529" y="442"/>
      <point x="442" y="377"/>
    </contour>
  </outline>
</glyph>
<glyph name="equal" format="2">
  <advance width="600"/>
  <unicode hex="003D"/>
  <outline>
    <contour>
      <point x="75" y="367" type="line"/>
      <point x="563" y="367" type="line"/>
      <point x="569" y="406" type="line"/>
      <point x="81" y="406" type="line"/>
    </contour>
    <contour>
      <point x="44" y="168" type="line"/>
      <point x="532" y="168" type="line"/>
      <point x="538" y="207" type="line"/>
      <point x="50" y="207" type="line"/>
    </contour>
  </outline>
</glyph>
<glyph name="greater" format="2">
  <advance width="600"/>
  <unicode hex="003E"/>
  <outline>
    <contour>
      <point x="23" y="37" type="line"/>
      <point x="548" y="269" type="line"/>
      <point x="554" y="305" type="line"/>
      <point x="102" y="537" type="line"/>
      <point x="95" y="496" type="line"/>
      <point x="521" y="278" type="line"/>
      <point x="525" y="300" type="line"/>
      <point x="30" y="83" type="line"/>
    </contour>
  </outline>
</glyph>
<glyph name="A" format="2">
  <advance width="716"/>
  <unicode hex="0041"/>
  <anchor x="337" y="0" name="bottom"/>
  <anchor x="643" y="0" name="ogonek"/>
  <anchor x="434" y="705" name="top"/>
  <outline>
    <contour>
      <point x="-3" y="0" type="line"/>
      <point x="46" y="0" type="line"/>
      <point x="166" y="204" type="line"/>
      <point x="134" y="195" type="line"/>
      <point x="570" y="195" type="line"/>
      <point x="546" y="204" type="line"/>
      <point x="601" y="0" type="line"/>
      <point x="643" y="0" type="line"/>
      <point x="452" y="705" type="line"/>
      <point x="412" y="705" type="line"/>
    </contour>
    <contour>
      <point x="425" y="648" type="line"/>
      <point x="427" y="648" type="line"/>
      <point x="539" y="228" type="line"/>
      <point x="559" y="234" type="line"/>
      <point x="157" y="234" type="line"/>
      <point x="180" y="228" type="line"/>
    </contour>
  </outline>
</glyph>
<glyph name="B" format="2">
  <advance width="666"/>
  <unicode hex="0042"/>
  <guideline x="324" y="220" angle="0"/>
  <anchor x="300" y="0" name="bottom"/>
  <anchor x="411" y="705" name="top"/>
  <outline>
    <contour>
      <point x="58" y="0" type="line"/>
      <point x="346" y="0" type="line" smooth="yes"/>
      <point x="503" y="0"/>
      <point x="588" y="70"/>
      <point x="588" y="207" type="curve" smooth="yes"/>
      <point x="588" y="290"/>
      <point x="532" y="349"/>
      <point x="443" y="363" type="curve"/>
      <point x="443" y="349" type="line"/>
      <point x="554" y="363"/>
      <point x="625" y="434"/>
      <point x="625" y="541" type="curve" smooth="yes"/>
      <point x="625" y="643"/>
      <point x="555" y="705"/>
      <point x="417" y="705" type="curve" smooth="yes"/>
      <point x="170" y="705" type="line"/>
    </contour>
    <contour>
      <point x="107" y="39" type="line"/>
      <point x="154" y="337" type="line"/>
      <point x="379" y="337" type="line" smooth="yes"/>
      <point x="485" y="337"/>
      <point x="544" y="292"/>
      <point x="544" y="206" type="curve" smooth="yes"/>
      <point x="544" y="96"/>
      <point x="479" y="39"/>
      <point x="350" y="39" type="curve" smooth="yes"/>
    </contour>
    <contour>
      <point x="160" y="376" type="line"/>
      <point x="206" y="666" type="line"/>
      <point x="414" y="666" type="line" smooth="yes"/>
      <point x="527" y="666"/>
      <point x="581" y="622"/>
      <point x="581" y="540" type="curve" smooth="yes"/>
      <point x="581" y="435"/>
      <point x="505" y="376"/>
      <point x="387" y="376" type="curve" smooth="yes"/>
    </contour>
  </outline>
</glyph>
<glyph name="C" format="2">
  <advance width="667"/>
  <unicode hex="0043"/>
  <guideline x="622" y="398" angle="81"/>
  <anchor x="364" y="0" name="bottom"/>
  <anchor x="433" y="705" name="top"/>
  <outline>
    <contour>
      <point x="371" y="-8" type="curve" smooth="yes"/>
      <point x="463" y="-8"/>
      <point x="540" y="24"/>
      <point x="604" y="87" type="curve"/>
      <point x="580" y="121" type="line"/>
      <point x="514" y="59"/>
      <point x="454" y="33"/>
      <point x="372" y="33" type="curve" smooth="yes"/>
      <point x="224" y="33"/>
      <point x="128" y="109"/>
      <point x="128" y="304" type="curve" smooth="yes"/>
      <point x="128" y="518"/>
      <point x="245" y="672"/>
      <point x="431" y="672" type="curve" smooth="yes"/>
      <point x="520" y="672"/>
      <point x="583" y="644"/>
      <point x="638" y="583" type="curve"/>
      <point x="663" y="618" type="line"/>
      <point x="611" y="678"/>
      <point x="532" y="713"/>
      <point x="434" y="713" type="curve" smooth="yes"/>
      <point x="219" y="713"/>
      <point x="83" y="537"/>
      <point x="83" y="305" type="curve" smooth="yes"/>
      <point x="83" y="89"/>
      <point x="199" y="-8"/>
    </contour>
  </outline>
</glyph>
<glyph name="F" format="2">
  <advance width="536"/>
  <unicode hex="0046"/>
  <anchor x="255" y="0" name="bottom"/>
  <anchor x="367" y="705" name="top"/>
  <outline>
    <contour>
      <point x="58" y="0" type="line"/>
      <point x="100" y="0" type="line"/>
      <point x="154" y="338" type="line"/>
      <point x="506" y="338" type="line"/>
      <point x="512" y="377" type="line"/>
      <point x="160" y="377" type="line"/>
      <point x="206" y="666" type="line"/>
      <point x="578" y="666" type="line"/>
      <point x="584" y="705" type="line"/>
      <point x="170" y="705" type="line"/>
    </contour>
  </outline>
</glyph>
<glyph name="J" format="2">
  <advance width="297"/>
  <unicode hex="004A"/>
  <guideline x="200" y="673" angle="0"/>
  <anchor x="143" y="0" name="bottom"/>
  <anchor x="254" y="705" name="top"/>
  <outline>
    <contour>
      <point x="-43" y="-6" type="line"/>
      <point x="5" y="-3" type="line" smooth="yes"/>
      <point x="112" y="4"/>
      <point x="173" y="68"/>
      <point x="190" y="177" type="curve" smooth="yes"/>
      <point x="274" y="705" type="line"/>
      <point x="232" y="705" type="line"/>
      <point x="150" y="187" type="line" smooth="yes"/>
      <point x="135" y="92"/>
      <point x="86" y="42"/>
      <point x="6" y="36" type="curve" smooth="yes"/>
      <point x="-44" y="32" type="line"/>
    </contour>
  </outline>
</glyph>
<glyph name="L" format="2">
  <advance width="527"/>
  <unicode hex="004C"/>
  <anchor x="267" y="0" name="bottom"/>
  <anchor x="182" y="387" name="center"/>
  <anchor x="408" y="386" name="dot"/>
  <anchor x="191" y="705" name="top"/>
  <anchor x="334" y="705" name="topright"/>
  <outline>
    <contour>
      <point x="58" y="0" type="line"/>
      <point x="476" y="0" type="line"/>
      <point x="482" y="39" type="line"/>
      <point x="106" y="39" type="line"/>
      <point x="212" y="705" type="line"/>
      <point x="170" y="705" type="line"/>
    </contour>
  </outline>
</glyph>
<glyph name="M" format="2">
  <advance width="844"/>
  <unicode hex="004D"/>
  <guideline x="318" y="396" angle="290.4204"/>
  <anchor x="389" y="0" name="bottom"/>
  <anchor x="496" y="705" name="top"/>
  <outline>
    <contour>
      <point x="60" y="0" type="line"/>
      <point x="99" y="0" type="line"/>
      <point x="204" y="666" type="line"/>
      <point x="184" y="666" type="line"/>
      <point x="385" y="110" type="line"/>
      <point x="420" y="110" type="line"/>
      <point x="799" y="665" type="line"/>
      <point x="774" y="665" type="line"/>
      <point x="669" y="0" type="line"/>
      <point x="708" y="0" type="line"/>
      <point x="820" y="705" type="line"/>
      <point x="784" y="705" type="line"/>
      <point x="389" y="127" type="line"/>
      <point x="416" y="127" type="line"/>
      <point x="208" y="705" type="line"/>
      <point x="172" y="705" type="line"/>
    </contour>
  </outline>
</glyph>
<glyph name="P" format="2">
  <advance width="616"/>
  <unicode hex="0050"/>
  <anchor x="278" y="0" name="bottom"/>
  <anchor x="390" y="705" name="top"/>
  <outline>
    <contour>
      <point x="58" y="0" type="line"/>
      <point x="100" y="0" type="line"/>
      <point x="147" y="297" type="line"/>
      <point x="370" y="297" type="line" smooth="yes"/>
      <point x="533" y="297"/>
      <point x="621" y="386"/>
      <point x="621" y="521" type="curve" smooth="yes"/>
      <point x="621" y="645"/>
      <point x="540" y="705"/>
      <point x="407" y="705" type="curve" smooth="yes"/>
      <point x="170" y="705" type="line"/>
    </contour>
    <contour>
      <point x="154" y="336" type="line"/>
      <point x="206" y="666" type="line"/>
      <point x="407" y="666" type="line" smooth="yes"/>
      <point x="518" y="666"/>
      <point x="577" y="621"/>
      <point x="577" y="520" type="curve" smooth="yes"/>
      <point x="577" y="400"/>
      <point x="506" y="336"/>
      <point x="374" y="336" type="curve" smooth="yes"/>
    </contour>
  </outline>
</glyph>
<glyph name="R" format="2">
  <advance width="654"/>
  <unicode hex="0052"/>
  <anchor x="305" y="0" name="bottom"/>
  <anchor x="395" y="705" name="top"/>
  <outline>
    <contour>
      <point x="58" y="0" type="line"/>
      <point x="100" y="0" type="line"/>
      <point x="149" y="312" type="line"/>
      <point x="317" y="312" type="line" smooth="yes"/>
      <point x="395" y="312"/>
      <point x="429" y="288"/>
      <point x="455" y="221" type="curve" smooth="yes"/>
      <point x="539" y="0" type="line"/>
      <point x="580" y="0" type="line"/>
      <point x="491" y="234" type="line" smooth="yes"/>
      <point x="468" y="294"/>
      <point x="434" y="327"/>
      <point x="381" y="327" type="curve" smooth="yes"/>
      <point x="373" y="327" type="line"/>
      <point x="373" y="316" type="line"/>
      <point x="515" y="312"/>
      <point x="621" y="385"/>
      <point x="621" y="520" type="curve" smooth="yes"/>
      <point x="621" y="634"/>
      <point x="549" y="705"/>
      <point x="401" y="705" type="curve" smooth="yes"/>
      <point x="170" y="705" type="line"/>
    </contour>
    <contour>
      <point x="156" y="351" type="line"/>
      <point x="206" y="666" type="line"/>
      <point x="401" y="666" type="line" smooth="yes"/>
      <point x="523" y="666"/>
      <point x="577" y="616"/>
      <point x="577" y="519" type="curve" smooth="yes"/>
      <point x="577" y="412"/>
      <point x="504" y="351"/>
      <point x="383" y="351" type="curve" smooth="yes"/>
    </contour>
  </outline>
</glyph>
<glyph name="S" format="2">
  <advance width="600"/>
  <unicode hex="0053"/>
  <anchor x="286" y="0" name="bottom"/>
  <anchor x="361" y="705" name="top"/>
  <outline>
    <contour>
      <point x="295" y="-8" type="curve" smooth="yes"/>
      <point x="436" y="-8"/>
      <point x="544" y="62"/>
      <point x="544" y="186" type="curve" smooth="yes"/>
      <point x="544" y="269"/>
      <point x="489" y="326"/>
      <point x="357" y="356" type="curve" smooth="yes"/>
      <point x="258" y="380" type="line" smooth="yes"/>
      <point x="183" y="398"/>
      <point x="144" y="429"/>
      <point x="144" y="512" type="curve" smooth="yes"/>
      <point x="144" y="609"/>
      <point x="233" y="672"/>
      <point x="347" y="672" type="curve" smooth="yes"/>
      <point x="429" y="672"/>
      <point x="505" y="648"/>
      <point x="564" y="585" type="curve"/>
      <point x="587" y="620" type="line"/>
      <point x="531" y="685"/>
      <point x="439" y="713"/>
      <point x="349" y="713" type="curve" smooth="yes"/>
      <point x="210" y="713"/>
      <point x="100" y="632"/>
      <point x="100" y="512" type="curve" smooth="yes"/>
      <point x="100" y="407"/>
      <point x="159" y="361"/>
      <point x="249" y="340" type="curve" smooth="yes"/>
      <point x="348" y="316" type="line" smooth="yes"/>
      <point x="463" y="290"/>
      <point x="500" y="245"/>
      <point x="500" y="182" type="curve" smooth="yes"/>
      <point x="500" y="89"/>
      <point x="417" y="33"/>
      <point x="297" y="33" type="curve" smooth="yes"/>
      <point x="197" y="33"/>
      <point x="126" y="50"/>
      <point x="56" y="112" type="curve"/>
      <point x="33" y="79" type="line"/>
      <point x="99" y="15"/>
      <point x="192" y="-8"/>
    </contour>
  </outline>
</glyph>
<glyph name="Y" format="2">
  <advance width="577"/>
  <unicode hex="0059"/>
  <anchor x="249" y="0" name="bottom"/>
  <anchor x="356" y="705" name="top"/>
  <anchor x="90" y="705" name="topleft"/>
  <outline>
    <contour>
      <point x="228" y="0" type="line"/>
      <point x="270" y="0" type="line"/>
      <point x="328" y="367" type="line"/>
      <point x="311" y="328" type="line"/>
      <point x="651" y="705" type="line"/>
      <point x="599" y="705" type="line"/>
      <point x="296" y="368" type="line"/>
      <point x="312" y="368" type="line"/>
      <point x="117" y="705" type="line"/>
      <point x="72" y="705" type="line"/>
      <point x="290" y="328" type="line"/>
      <point x="286" y="367" type="line"/>
    </contour>
  </outline>
</glyph>
<glyph name="bracketleft" format="2">
  <advance width="281"/>
  <unicode hex="005B"/>
  <outline>
    <contour>
      <point x="45" y="-180" type="line"/>
      <point x="210" y="-180" type="line"/>
      <point x="216" y="-143" type="line"/>
      <point x="93" y="-143" type="line"/>
      <point x="221" y="668" type="line"/>
      <point x="344" y="668" type="line"/>
      <point x="350" y="705" type="line"/>
      <point x="185" y="705" type="line"/>
    </contour>
  </outline>
</glyph>
<glyph name="underscore" format="2">
  <advance width="500"/>
  <unicode hex="005F"/>
  <outline>
    <contour>
      <point x="-23" y="-33" type="line"/>
      <point x="436" y="-33" type="line"/>
      <point x="441" y="0" type="line"/>
      <point x="-18" y="0" type="line"/>
    </contour>
  </outline>
</glyph>
<glyph name="a" format="2">
  <advance width="514"/>
  <unicode hex="0061"/>
  <guideline x="122" y="415" angle="118.4956"/>
  <anchor x="228" y="0" name="bottom"/>
  <anchor x="393" y="0" name="ogonek"/>
  <anchor x="300" y="484" name="top"/>
  <outline>
    <contour>
      <point x="205" y="-8" type="curve" smooth="yes"/>
      <point x="277" y="-8"/>
      <point x="354" y="32"/>
      <point x="380" y="116" type="curve"/>
      <point x="370" y="116" type="line"/>
      <point x="352" y="0" type="line"/>
      <point x="393" y="0" type="line"/>
      <point x="441" y="302" type="line" smooth="yes"/>
      <point x="460" y="422"/>
      <point x="408" y="492"/>
      <point x="291" y="492" type="curve" smooth="yes"/>
      <point x="224" y="492"/>
      <point x="154" y="470"/>
      <point x="108" y="436" type="curve"/>
      <point x="126" y="400" type="line"/>
      <point x="177" y="437"/>
      <point x="228" y="453"/>
      <point x="289" y="453" type="curve" smooth="yes"/>
      <point x="382" y="453"/>
      <point x="416" y="405"/>
      <point x="401" y="315" type="curve" smooth="yes"/>
      <point x="381" y="191" type="line" smooth="yes"/>
      <point x="365" y="89"/>
      <point x="288" y="30"/>
      <point x="208" y="30" type="curve" smooth="yes"/>
      <point x="150" y="30"/>
      <point x="96" y="66"/>
      <point x="96" y="136" type="curve" smooth="yes"/>
      <point x="96" y="212"/>
      <point x="154" y="238"/>
      <point x="340" y="238" type="curve" smooth="yes"/>
      <point x="399" y="238" type="line"/>
      <point x="405" y="275" type="line"/>
      <point x="324" y="275" type="line" smooth="yes"/>
      <point x="131" y="275"/>
      <point x="49" y="235"/>
      <point x="49" y="134" type="curve" smooth="yes"/>
      <point x="49" y="48"/>
      <point x="124" y="-8"/>
    </contour>
  </outline>
</glyph>
<glyph name="b" format="2">
  <advance width="568"/>
  <unicode hex="0062"/>
  <anchor x="271" y="0" name="bottom"/>
  <anchor x="373" y="705" name="top"/>
  <outline>
    <contour>
      <point x="275" y="-8" type="curve" smooth="yes"/>
      <point x="433" y="-8"/>
      <point x="517" y="130"/>
      <point x="517" y="286" type="curve" smooth="yes"/>
      <point x="517" y="413"/>
      <point x="441" y="492"/>
      <point x="327" y="492" type="curve" smooth="yes"/>
      <point x="237" y="492"/>
      <point x="170" y="445"/>
      <point x="136" y="371" type="curve"/>
      <point x="148" y="371" type="line"/>
      <point x="201" y="705" type="line"/>
      <point x="159" y="705" type="line"/>
      <point x="47" y="0" type="line"/>
      <point x="89" y="0" type="line"/>
      <point x="108" y="122" type="line"/>
      <point x="101" y="122" type="line"/>
      <point x="124" y="33"/>
      <point x="194" y="-8"/>
    </contour>
    <contour>
      <point x="277" y="31" type="curve" smooth="yes"/>
      <point x="181" y="31"/>
      <point x="124" y="88"/>
      <point x="124" y="198" type="curve" smooth="yes"/>
      <point x="124" y="337"/>
      <point x="193" y="453"/>
      <point x="321" y="453" type="curve" smooth="yes"/>
      <point x="417" y="453"/>
      <point x="474" y="396"/>
      <point x="474" y="286" type="curve" smooth="yes"/>
      <point x="474" y="147"/>
      <point x="405" y="31"/>
    </contour>
  </outline>
</glyph>
<glyph name="c" format="2">
  <advance width="455"/>
  <unicode hex="0063"/>
  <guideline x="426" y="349" angle="81"/>
  <anchor x="234" y="0" name="bottom"/>
  <anchor x="296" y="484" name="top"/>
  <outline>
    <contour>
      <point x="248" y="-8" type="curve" smooth="yes"/>
      <point x="304" y="-8"/>
      <point x="366" y="15"/>
      <point x="405" y="53" type="curve"/>
      <point x="386" y="87" type="line"/>
      <point x="345" y="48"/>
      <point x="294" y="31"/>
      <point x="250" y="31" type="curve" smooth="yes"/>
      <point x="140" y="31"/>
      <point x="95" y="98"/>
      <point x="95" y="202" type="curve" smooth="yes"/>
      <point x="95" y="325"/>
      <point x="153" y="453"/>
      <point x="295" y="453" type="curve" smooth="yes"/>
      <point x="353" y="453"/>
      <point x="397" y="435"/>
      <point x="434" y="396" type="curve"/>
      <point x="455" y="428" type="line"/>
      <point x="422" y="466"/>
      <point x="361" y="492"/>
      <point x="297" y="492" type="curve" smooth="yes"/>
      <point x="124" y="492"/>
      <point x="52" y="343"/>
      <point x="52" y="202" type="curve" smooth="yes"/>
      <point x="52" y="78"/>
      <point x="114" y="-8"/>
    </contour>
  </outline>
</glyph>
<glyph name="d" format="2">
  <advance width="568"/>
  <unicode hex="0064"/>
  <guideline x="489" y="532" angle="260.9935"/>
  <anchor x="250" y="0" name="bottom"/>
  <anchor x="289" y="245" name="center"/>
  <anchor x="467" y="580" name="stroke"/>
  <anchor x="327" y="484" name="top"/>
  <anchor x="606" y="705" name="topright"/>
  <outline>
    <contour>
      <point x="241" y="-8" type="curve" smooth="yes"/>
      <point x="331" y="-8"/>
      <point x="398" y="39"/>
      <point x="432" y="113" type="curve"/>
      <point x="420" y="113" type="line"/>
      <point x="402" y="0" type="line"/>
      <point x="444" y="0" type="line"/>
      <point x="556" y="705" type="line"/>
      <point x="514" y="705" type="line"/>
      <point x="460" y="362" type="line"/>
      <point x="467" y="362" type="line"/>
      <point x="444" y="451"/>
      <point x="374" y="492"/>
      <point x="293" y="492" type="curve" smooth="yes"/>
      <point x="135" y="492"/>
      <point x="51" y="354"/>
      <point x="51" y="198" type="curve" smooth="yes"/>
      <point x="51" y="71"/>
      <point x="127" y="-8"/>
    </contour>
    <contour>
      <point x="247" y="31" type="curve" smooth="yes"/>
      <point x="151" y="31"/>
      <point x="94" y="88"/>
      <point x="94" y="198" type="curve" smooth="yes"/>
      <point x="94" y="337"/>
      <point x="163" y="453"/>
      <point x="291" y="453" type="curve" smooth="yes"/>
      <point x="387" y="453"/>
      <point x="444" y="396"/>
      <point x="444" y="286" type="curve" smooth="yes"/>
      <point x="444" y="147"/>
      <point x="375" y="31"/>
    </contour>
  </outline>
</glyph>
<glyph name="h" format="2">
  <advance width="553"/>
  <unicode hex="0068"/>
  <anchor x="246" y="0" name="bottom"/>
  <anchor x="277" y="245" name="center"/>
  <anchor x="221" y="353" name="dot"/>
  <anchor x="210" y="580" name="stroke"/>
  <anchor x="351" y="705" name="top"/>
  <anchor x="242" y="705" name="topright"/>
  <outline>
    <contour>
      <point x="47" y="0" type="line"/>
      <point x="89" y="0" type="line"/>
      <point x="131" y="264" type="line" smooth="yes"/>
      <point x="149" y="378"/>
      <point x="215" y="453"/>
      <point x="330" y="453" type="curve" smooth="yes"/>
      <point x="417" y="453"/>
      <point x="453" y="402"/>
      <point x="436" y="296" type="curve" smooth="yes"/>
      <point x="389" y="0" type="line"/>
      <point x="431" y="0" type="line"/>
      <point x="478" y="295" type="line" smooth="yes"/>
      <point x="499" y="428"/>
      <point x="439" y="492"/>
      <point x="331" y="492" type="curve" smooth="yes"/>
      <point x="236" y="492"/>
      <point x="168" y="444"/>
      <point x="135" y="364" type="curve"/>
      <point x="147" y="364" type="line"/>
      <point x="201" y="705" type="line"/>
      <point x="159" y="705" type="line"/>
    </contour>
  </outline>
</glyph>
<glyph name="i" format="2">
  <advance width="212"/>
  <unicode hex="0069"/>
  <anchor x="67" y="0" name="bottom"/>
  <anchor x="88" y="0" name="ogonek"/>
  <outline>
    <contour>
      <point x="134" y="619" type="line"/>
      <point x="198" y="619" type="line"/>
      <point x="208" y="682" type="line"/>
      <point x="144" y="682" type="line"/>
    </contour>
    <contour>
      <point x="46" y="0" type="line"/>
      <point x="88" y="0" type="line"/>
      <point x="165" y="484" type="line"/>
      <point x="123" y="484" type="line"/>
    </contour>
  </outline>
</glyph>
<glyph name="k" format="2">
  <advance width="468"/>
  <unicode hex="006B"/>
  <guideline x="291" y="134" angle="315.7162"/>
  <anchor x="199" y="0" name="bottom"/>
  <anchor x="351" y="705" name="top"/>
  <outline>
    <contour>
      <point x="47" y="0" type="line"/>
      <point x="89" y="0" type="line"/>
      <point x="126" y="237" type="line"/>
      <point x="128" y="237" type="line"/>
      <point x="373" y="0" type="line"/>
      <point x="429" y="0" type="line"/>
      <point x="155" y="264" type="line"/>
      <point x="149" y="225" type="line"/>
      <point x="476" y="484" type="line"/>
      <point x="416" y="484" type="line"/>
      <point x="132" y="260" type="line"/>
      <point x="130" y="260" type="line"/>
      <point x="200" y="705" type="line"/>
      <point x="158" y="705" type="line"/>
    </contour>
  </outline>
</glyph>
<glyph name="l" format="2">
  <advance width="275"/>
  <unicode hex="006C"/>
  <anchor x="143" y="0" name="bottom"/>
  <anchor x="134" y="357" name="center"/>
  <anchor x="252" y="357" name="dot"/>
  <anchor x="180" y="705" name="top"/>
  <anchor x="250" y="705" name="topright"/>
  <outline>
    <contour>
      <point x="177" y="-8" type="curve" smooth="yes"/>
      <point x="191" y="-8"/>
      <point x="211" y="-6"/>
      <point x="226" y="-1" type="curve"/>
      <point x="235" y="37" type="line"/>
      <point x="218" y="33"/>
      <point x="202" y="31"/>
      <point x="185" y="31" type="curve" smooth="yes"/>
      <point x="122" y="31"/>
      <point x="98" y="62"/>
      <point x="111" y="143" type="curve" smooth="yes"/>
      <point x="200" y="705" type="line"/>
      <point x="158" y="705" type="line"/>
      <point x="69" y="143" type="line" smooth="yes"/>
      <point x="53" y="43"/>
      <point x="94" y="-8"/>
    </contour>
  </outline>
</glyph>
<glyph name="p" format="2">
  <advance width="568"/>
  <unicode hex="0070"/>
  <anchor x="243" y="0" name="bottom"/>
  <anchor x="320" y="484" name="top"/>
  <outline>
    <contour>
      <point x="18" y="-180" type="line"/>
      <point x="60" y="-180" type="line"/>
      <point x="108" y="122" type="line"/>
      <point x="101" y="122" type="line"/>
      <point x="124" y="33"/>
      <point x="194" y="-8"/>
      <point x="275" y="-8" type="curve" smooth="yes"/>
      <point x="432" y="-8"/>
      <point x="517" y="130"/>
      <point x="517" y="284" type="curve" smooth="yes"/>
      <point x="517" y="414"/>
      <point x="442" y="492"/>
      <point x="327" y="492" type="curve" smooth="yes"/>
      <point x="237" y="492"/>
      <point x="170" y="445"/>
      <point x="136" y="371" type="curve"/>
      <point x="147" y="371" type="line"/>
      <point x="165" y="484" type="line"/>
      <point x="123" y="484" type="line"/>
    </contour>
    <contour>
      <point x="277" y="31" type="curve" smooth="yes"/>
      <point x="181" y="31"/>
      <point x="124" y="88"/>
      <point x="124" y="198" type="curve" smooth="yes"/>
      <point x="124" y="337"/>
      <point x="193" y="453"/>
      <point x="321" y="453" type="curve" smooth="yes"/>
      <point x="417" y="453"/>
      <point x="474" y="396"/>
      <point x="474" y="286" type="curve" smooth="yes"/>
      <point x="474" y="147"/>
      <point x="405" y="31"/>
    </contour>
  </outline>
</glyph>
<glyph name="w" format="2">
  <advance width="830"/>
  <unicode hex="0077"/>
  <anchor x="376" y="0" name="bottom"/>
  <anchor x="451" y="484" name="top"/>
  <outline>
    <contour>
      <point x="171" y="0" type="line"/>
      <point x="220" y="0" type="line"/>
      <point x="469" y="478" type="line"/>
      <point x="438" y="478" type="line"/>
      <point x="531" y="0" type="line"/>
      <point x="580" y="0" type="line"/>
      <point x="828" y="484" type="line"/>
      <point x="782" y="484" type="line"/>
      <point x="542" y="12" type="line"/>
      <point x="567" y="12" type="line"/>
      <point x="477" y="484" type="line"/>
      <point x="426" y="484" type="line"/>
      <point x="182" y="12" type="line"/>
      <point x="208" y="12" type="line"/>
      <point x="121" y="484" type="line"/>
      <point x="78" y="484" type="line"/>
    </contour>
  </outline>
</glyph>
<glyph name="z" format="2">
  <advance width="454"/>
  <unicode hex="007A"/>
  <anchor x="208" y="0" name="bottom"/>
  <anchor x="269" y="484" name="top"/>
  <outline>
    <contour>
      <point x="22" y="0" type="line"/>
      <point x="382" y="0" type="line"/>
      <point x="388" y="35" type="line"/>
      <point x="67" y="35" type="line"/>
      <point x="70" y="22" type="line"/>
      <point x="443" y="455" type="line"/>
      <point x="448" y="484" type="line"/>
      <point x="99" y="484" type="line"/>
      <point x="93" y="449" type="line"/>
      <point x="402" y="449" type="line"/>
      <point x="399" y="461" type="line"/>
      <point x="27" y="29" type="line"/>
    </contour>
  </outline>
</glyph>
<glyph name="braceright" format="2">
  <advance width="318"/>
  <unicode hex="007D"/>
  <outline>
    <contour>
      <point x="-63" y="-180" type="line"/>
      <point x="19" y="-180" type="line" smooth="yes"/>
      <point x="75" y="-180"/>
      <point x="106" y="-149"/>
      <point x="115" y="-95" type="curve" smooth="yes"/>
      <point x="156" y="161" type="line" smooth="yes"/>
      <point x="165" y="215"/>
      <point x="185" y="240"/>
      <point x="242" y="243" type="curve" smooth="yes"/>
      <point x="264" y="244" type="line"/>
      <point x="269" y="280" type="line"/>
      <point x="249" y="281" type="line" smooth="yes"/>
      <point x="192" y="284"/>
      <point x="180" y="309"/>
      <point x="188" y="363" type="curve" smooth="yes"/>
      <point x="228" y="620" type="line" smooth="yes"/>
      <point x="237" y="676"/>
      <point x="211" y="705"/>
      <point x="139" y="705" type="curve" smooth="yes"/>
      <point x="77" y="705" type="line"/>
      <point x="71" y="668" type="line"/>
      <point x="150" y="668" type="line" smooth="yes"/>
      <point x="181" y="668"/>
      <point x="191" y="652"/>
      <point x="186" y="622" type="curve" smooth="yes"/>
      <point x="146" y="360" type="line" smooth="yes"/>
      <point x="135" y="287"/>
      <point x="175" y="260"/>
      <point x="214" y="260" type="curve"/>
      <point x="214" y="264" type="line"/>
      <point x="175" y="264"/>
      <point x="125" y="237"/>
      <point x="114" y="164" type="curve" smooth="yes"/>
      <point x="73" y="-97" type="line" smooth="yes"/>
      <point x="68" y="-127"/>
      <point x="51" y="-143"/>
      <point x="21" y="-143" type="curve" smooth="yes"/>
      <point x="-57" y="-143" type="line"/>
    </contour>
  </outline>
</glyph>
<glyph name="paragraph" format="2">
  <advance width="556"/>
  <unicode hex="00B6"/>
  <outline>
    <contour>
      <point x="172" y="-180" type="line"/>
      <point x="214" y="-180" type="line"/>
      <point x="348" y="667" type="line"/>
      <point x="485" y="667" type="line"/>
      <point x="351" y="-180" type="line"/>
      <point x="393" y="-180" type="line"/>
      <point x="533" y="705" type="line"/>
      <point x="306" y="705" type="line" smooth="yes"/>
      <point x="182" y="705"/>
      <point x="94" y="618"/>
      <point x="94" y="494" type="curve" smooth="yes"/>
      <point x="94" y="406"/>
      <point x="153" y="335"/>
      <point x="253" y="335" type="curve"/>
    </contour>
  </outline>
</glyph>
<glyph name="germandbls" format="2">
  <advance width="581"/>
  <unicode hex="00DF"/>
  <outline>
    <contour>
      <point x="350" y="-8" type="curve" smooth="yes"/>
      <point x="454" y="-8"/>
      <point x="526" y="45"/>
      <point x="526" y="131" type="curve" smooth="yes"/>
      <point x="526" y="201"/>
      <point x="480" y="236"/>
      <point x="396" y="265" type="curve" smooth="yes"/>
      <point x="325" y="289"/>
      <point x="300" y="315"/>
      <point x="300" y="350" type="curve" smooth="yes"/>
      <point x="300" y="394"/>
      <point x="333" y="419"/>
      <point x="381" y="453" type="curve" smooth="yes"/>
      <point x="441" y="498"/>
      <point x="482" y="533"/>
      <point x="482" y="603" type="curve" smooth="yes"/>
      <point x="482" y="663"/>
      <point x="433" y="713"/>
      <point x="351" y="713" type="curve" smooth="yes"/>
      <point x="223" y="713"/>
      <point x="147" y="636"/>
      <point x="126" y="501" type="curve" smooth="yes"/>
      <point x="47" y="0" type="line"/>
      <point x="89" y="0" type="line"/>
      <point x="168" y="500" type="line" smooth="yes"/>
      <point x="186" y="611"/>
      <point x="247" y="674"/>
      <point x="349" y="674" type="curve" smooth="yes"/>
      <point x="407" y="674"/>
      <point x="439" y="642"/>
      <point x="439" y="599" type="curve" smooth="yes"/>
      <point x="439" y="549"/>
      <point x="409" y="522"/>
      <point x="360" y="486" type="curve" smooth="yes"/>
      <point x="279" y="427"/>
      <point x="256" y="401"/>
      <point x="256" y="351" type="curve" smooth="yes"/>
      <point x="256" y="293"/>
      <point x="287" y="260"/>
      <point x="380" y="228" type="curve" smooth="yes"/>
      <point x="461" y="201"/>
      <point x="482" y="168"/>
      <point x="482" y="128" type="curve" smooth="yes"/>
      <point x="482" y="65"/>
      <point x="433" y="31"/>
      <point x="345" y="31" type="curve" smooth="yes"/>
      <point x="283" y="31"/>
      <point x="235" y="50"/>
      <point x="193" y="86" type="curve"/>
      <point x="170" y="53" type="line"/>
      <point x="208" y="17"/>
      <point x="275" y="-8"/>
    </contour>
  </outline>
</glyph>
<glyph name="divide" format="2">
  <advance width="600"/>
  <unicode hex="00F7"/>
  <outline>
    <contour>
      <point x="60" y="267" type="line"/>
      <point x="548" y="267" type="line"/>
      <point x="554" y="306" type="line"/>
      <point x="66" y="306" type="line"/>
    </contour>
    <contour>
      <point x="228" y="51" type="line"/>
      <point x="298" y="51" type="line"/>
      <point x="310" y="121" type="line"/>
      <point x="240" y="121" type="line"/>
    </contour>
    <contour>
      <point x="292" y="452" type="line"/>
      <point x="362" y="452" type="line"/>
      <point x="373" y="522" type="line"/>
      <point x="303" y="522" type="line"/>
    </contour>
  </outline>
</glyph>
<glyph name="Hbar" format="2">
  <advance width="781"/>
  <unicode hex="0126"/>
  <outline>
    <contour>
      <point x="72" y="0" type="line"/>
      <point x="114" y="0" type="line"/>
      <point x="168" y="338" type="line"/>
      <point x="642" y="338" type="line"/>
      <point x="588" y="0" type="line"/>
      <point x="630" y="0" type="line"/>
      <point x="714" y="527" type="line"/>
      <point x="811" y="527" type="line"/>
      <point x="817" y="565" type="line"/>
      <point x="720" y="565" type="line"/>
      <point x="742" y="705" type="line"/>
      <point x="700" y="705" type="line"/>
      <point x="678" y="565" type="line"/>
      <point x="204" y="565" type="line"/>
      <point x="226" y="705" type="line"/>
      <point x="184" y="705" type="line"/>
      <point x="162" y="565" type="line"/>
      <point x="66" y="565" type="line"/>
      <point x="60" y="527" type="line"/>
      <point x="156" y="527" type="line"/>
    </contour>
    <contour>
      <point x="174" y="377" type="line"/>
      <point x="198" y="527" type="line"/>
      <point x="672" y="527" type="line"/>
      <point x="648" y="377" type="line"/>
    </contour>
  </outline>
</glyph>
<glyph name="hbar" format="2">
  <advance width="553"/>
  <unicode hex="0127"/>
  <outline>
    <contour>
      <point x="47" y="0" type="line"/>
      <point x="89" y="0" type="line"/>
      <point x="131" y="264" type="line" smooth="yes"/>
      <point x="149" y="378"/>
      <point x="215" y="453"/>
      <point x="330" y="453" type="curve" smooth="yes"/>
      <point x="417" y="453"/>
      <point x="453" y="402"/>
      <point x="436" y="296" type="curve" smooth="yes"/>
      <point x="389" y="0" type="line"/>
      <point x="431" y="0" type="line"/>
      <point x="478" y="295" type="line" smooth="yes"/>
      <point x="499" y="428"/>
      <point x="439" y="492"/>
      <point x="331" y="492" type="curve" smooth="yes"/>
      <point x="236" y="492"/>
      <point x="168" y="444"/>
      <point x="135" y="364" type="curve"/>
      <point x="147" y="364" type="line"/>
      <point x="178" y="562" type="line"/>
      <point x="375" y="562" type="line"/>
      <point x="381" y="598" type="line"/>
      <point x="184" y="598" type="line"/>
      <point x="201" y="705" type="line"/>
      <point x="159" y="705" type="line"/>
      <point x="142" y="598" type="line"/>
      <point x="47" y="598" type="line"/>
      <point x="41" y="562" type="line"/>
      <point x="136" y="562" type="line"/>
    </contour>
  </outline>
</glyph>
<glyph name="kgreenlandic" format="2">
  <advance width="468"/>
  <unicode hex="0138"/>
  <anchor x="199" y="0" name="bottom"/>
  <anchor x="272" y="484" name="top"/>
  <outline>
    <contour>
      <point x="47" y="0" type="line"/>
      <point x="89" y="0" type="line"/>
      <point x="126" y="237" type="line"/>
      <point x="128" y="237" type="line"/>
      <point x="372" y="0" type="line"/>
      <point x="429" y="0" type="line"/>
      <point x="155" y="264" type="line"/>
      <point x="149" y="225" type="line"/>
      <point x="476" y="484" type="line"/>
      <point x="416" y="484" type="line"/>
      <point x="132" y="260" type="line"/>
      <point x="130" y="260" type="line"/>
      <point x="165" y="484" type="line"/>
      <point x="123" y="484" type="line"/>
    </contour>
  </outline>
</glyph>
<glyph name="commaturnedmod" format="2">
  <advance width="500"/>
  <unicode hex="02BB"/>
  <anchor x="288" y="484" name="_top"/>
  <anchor x="319" y="685" name="top"/>
  <outline>
    <contour>
      <point x="266" y="570" type="line"/>
      <point x="336" y="570" type="line"/>
      <point x="346" y="635" type="line"/>
      <point x="296" y="635" type="line"/>
      <point x="310" y="628" type="line"/>
      <point x="315" y="661"/>
      <point x="326" y="688"/>
      <point x="363" y="723" type="curve"/>
      <point x="340" y="743" type="line"/>
      <point x="304" y="711"/>
      <point x="281" y="669"/>
      <point x="274" y="624" type="curve" smooth="yes"/>
    </contour>
  </outline>
</glyph>
<glyph name="ringhalfright" format="2">
  <advance width="500"/>
  <unicode hex="02BE"/>
  <anchor x="288" y="484" name="_top"/>
  <anchor x="320" y="685" name="top"/>
  <outline>
    <contour>
      <point x="299" y="556" type="line"/>
      <point x="359" y="552"/>
      <point x="412" y="599"/>
      <point x="412" y="659" type="curve" smooth="yes"/>
      <point x="412" y="705"/>
      <point x="380" y="742"/>
      <point x="329" y="745" type="curve"/>
      <point x="323" y="710" type="line"/>
      <point x="354" y="708"/>
      <point x="372" y="687"/>
      <point x="372" y="657" type="curve" smooth="yes"/>
      <point x="372" y="619"/>
      <point x="342" y="590"/>
      <point x="305" y="592" type="curve"/>
    </contour>
  </outline>
</glyph>
<glyph name="fourthtofinechinese" format="2">
  <advance width="500"/>
  <unicode hex="02CB"/>
  <anchor x="288" y="484" name="_top"/>
  <anchor x="320" y="685" name="top"/>
  <outline>
    <contour>
      <point x="278" y="549" type="line"/>
      <point x="314" y="549" type="line"/>
      <point x="191" y="749" type="line"/>
      <point x="138" y="749" type="line"/>
    </contour>
  </outline>
</glyph>
<glyph name="circumflexcomb" format="2">
  <unicode hex="0302"/>
  <guideline x="-903" y="549" angle="0"/>
  <anchor x="0" y="484" name="_top"/>
  <anchor x="24" y="685" name="top"/>
  <outline>
    <contour>
      <point x="-124" y="549" type="line"/>
      <point x="-88" y="549" type="line"/>
      <point x="29" y="710" type="line"/>
      <point x="108" y="549" type="line"/>
      <point x="142" y="549" type="line"/>
      <point x="55" y="749" type="line"/>
      <point x="7" y="749" type="line"/>
    </contour>
  </outline>
</glyph>
<glyph name="macroncomb" format="2">
  <unicode hex="0304"/>
  <anchor x="0" y="484" name="_top"/>
  <anchor x="32" y="685" name="top"/>
  <outline>
    <contour>
      <point x="-116" y="633" type="line"/>
      <point x="164" y="633" type="line"/>
      <point x="170" y="671" type="line"/>
      <point x="-110" y="671" type="line"/>
    </contour>
  </outline>
</glyph>
<glyph name="brevecomb" format="2">
  <unicode hex="0306"/>
  <anchor x="0" y="484" name="_top"/>
  <anchor x="25" y="685" name="top"/>
  <outline>
    <contour>
      <point x="19" y="547" type="curve" smooth="yes"/>
      <point x="102" y="547"/>
      <point x="160" y="617"/>
      <point x="177" y="734" type="curve"/>
      <point x="144" y="738" type="line"/>
      <point x="131" y="639"/>
      <point x="86" y="583"/>
      <point x="20" y="583" type="curve" smooth="yes"/>
      <point x="-46" y="583"/>
      <point x="-84" y="639"/>
      <point x="-78" y="738" type="curve"/>
      <point x="-111" y="734" type="line"/>
      <point x="-117" y="617"/>
      <point x="-64" y="547"/>
    </contour>
  </outline>
</glyph>
<glyph name="caroncomb" format="2">
  <unicode hex="030C"/>
  <anchor x="0" y="484" name="_top"/>
  <anchor x="32" y="685" name="top"/>
  <outline>
    <contour>
      <point x="-14" y="549" type="line"/>
      <point x="34" y="549" type="line"/>
      <point x="165" y="749" type="line"/>
      <point x="129" y="749" type="line"/>
      <point x="12" y="588" type="line"/>
      <point x="-67" y="749" type="line"/>
      <point x="-101" y="749" type="line"/>
    </contour>
  </outline>
</glyph>
<glyph name="dblgravecomb" format="2">
  <unicode hex="030F"/>
  <anchor x="0" y="484" name="_top"/>
  <anchor x="32" y="685" name="top"/>
  <outline>
    <contour>
      <point x="51" y="549" type="line"/>
      <point x="78" y="549" type="line"/>
      <point x="37" y="749" type="line"/>
      <point x="-10" y="749" type="line"/>
    </contour>
    <contour>
      <point x="-58" y="549" type="line"/>
      <point x="-31" y="549" type="line"/>
      <point x="-72" y="749" type="line"/>
      <point x="-119" y="749" type="line"/>
    </contour>
  </outline>
</glyph>
<glyph name="horncomb" format="2">
  <unicode hex="031B"/>
  <anchor x="0" y="484" name="_topright"/>
  <outline>
    <contour>
      <point x="10" y="446" type="line"/>
      <point x="106" y="450"/>
      <point x="163" y="497"/>
      <point x="177" y="589" type="curve" smooth="yes"/>
      <point x="181" y="616" type="line"/>
      <point x="141" y="616" type="line"/>
      <point x="139" y="604" type="line" smooth="yes"/>
      <point x="126" y="528"/>
      <point x="97" y="485"/>
      <point x="0" y="484" type="curve"/>
      <point x="-4" y="459" type="line"/>
    </contour>
  </outline>
</glyph>
<glyph name="commaaccentcomb" format="2">
  <unicode hex="0326"/>
  <anchor x="0" y="0" name="_bottom"/>
  <anchor x="-27" y="-170" name="bottom"/>
  <outline>
    <contour>
      <point x="-50" y="-259" type="line"/>
      <point x="-14" y="-232"/>
      <point x="4" y="-195"/>
      <point x="12" y="-147" type="curve" smooth="yes"/>
      <point x="22" y="-86" type="line"/>
      <point x="-48" y="-86" type="line"/>
      <point x="-59" y="-151" type="line"/>
      <point x="-9" y="-151" type="line"/>
      <point x="-22" y="-144" type="line"/>
      <point x="-29" y="-182"/>
      <point x="-34" y="-206"/>
      <point x="-70" y="-237" type="curve"/>
    </contour>
  </outline>
</glyph>
<glyph name="ogonekcomb" format="2">
  <unicode hex="0328"/>
  <guideline x="-751" y="-77" angle="270"/>
  <guideline x="-790" y="-76" angle="90"/>
  <anchor x="0" y="0" name="_ogonek"/>
  <outline>
    <contour>
      <point x="-30" y="-190" type="curve" smooth="yes"/>
      <point x="-3" y="-190"/>
      <point x="25" y="-182"/>
      <point x="38" y="-175" type="curve"/>
      <point x="29" y="-141" type="line"/>
      <point x="9" y="-150"/>
      <point x="-9" y="-154"/>
      <point x="-25" y="-154" type="curve" smooth="yes"/>
      <point x="-62" y="-154"/>
      <point x="-80" y="-132"/>
      <point x="-80" y="-99" type="curve" smooth="yes"/>
      <point x="-80" y="-60"/>
      <point x="-54" y="-22"/>
      <point x="0" y="0" type="curve"/>
      <point x="-18" y="31" type="line"/>
      <point x="-77" y="5"/>
      <point x="-119" y="-44"/>
      <point x="-119" y="-103" type="curve" smooth="yes"/>
      <point x="-119" y="-154"/>
      <point x="-87" y="-190"/>
    </contour>
  </outline>
</glyph>
<glyph name="slashlongcomb" format="2">
  <unicode hex="0338"/>
  <anchor x="0" y="245" name="_center"/>
  <outline>
    <contour>
      <point x="-175" y="-29" type="line"/>
      <point x="205" y="496" type="line"/>
      <point x="177" y="518" type="line"/>
      <point x="-204" y="-6" type="line"/>
    </contour>
  </outline>
</glyph>
<glyph name="mu" format="2">
  <advance width="545"/>
  <unicode hex="03BC"/>
  <outline>
    <contour>
      <point x="16" y="-180" type="line"/>
      <point x="58" y="-180" type="line"/>
      <point x="93" y="69" type="line"/>
      <point x="84" y="67" type="line"/>
      <point x="106" y="17"/>
      <point x="154" y="-8"/>
      <point x="219" y="-8" type="curve" smooth="yes"/>
      <point x="309" y="-8"/>
      <point x="379" y="40"/>
      <point x="410" y="120" type="curve"/>
      <point x="399" y="120" type="line"/>
      <point x="380" y="0" type="line"/>
      <point x="421" y="0" type="line"/>
      <point x="498" y="484" type="line"/>
      <point x="456" y="484" type="line"/>
      <point x="414" y="220" type="line" smooth="yes"/>
      <point x="396" y="106"/>
      <point x="330" y="31"/>
      <point x="220" y="31" type="curve" smooth="yes"/>
      <point x="136" y="31"/>
      <point x="100" y="82"/>
      <point x="117" y="188" type="curve" smooth="yes"/>
      <point x="164" y="484" type="line"/>
      <point x="122" y="484" type="line"/>
    </contour>
  </outline>
</glyph>
<glyph name="pi" format="2">
  <advance width="560"/>
  <unicode hex="03C0"/>
  <outline>
    <contour>
      <point x="450" y="-3" type="curve" smooth="yes"/>
      <point x="467" y="-3"/>
      <point x="486" y="-1"/>
      <point x="508" y="3" type="curve"/>
      <point x="516" y="42" type="line"/>
      <point x="495" y="38"/>
      <point x="477" y="36"/>
      <point x="461" y="36" type="curve" smooth="yes"/>
      <point x="386" y="36"/>
      <point x="363" y="75"/>
      <point x="376" y="161" type="curve" smooth="yes"/>
      <point x="421" y="448" type="line"/>
      <point x="548" y="448" type="line"/>
      <point x="554" y="484" type="line"/>
      <point x="44" y="484" type="line"/>
      <point x="38" y="448" type="line"/>
      <point x="137" y="448" type="line"/>
      <point x="108" y="275"/>
      <point x="58" y="120"/>
      <point x="-7" y="0" type="curve"/>
      <point x="40" y="0" type="line"/>
      <point x="101" y="117"/>
      <point x="147" y="264"/>
      <point x="179" y="448" type="curve"/>
      <point x="379" y="448" type="line"/>
      <point x="334" y="162" type="line" smooth="yes"/>
      <point x="318" y="63"/>
      <point x="357" y="-3"/>
    </contour>
  </outline>
</glyph>
<glyph name="Dzhe-cy" format="2">
  <advance width="746"/>
  <unicode hex="040F"/>
  <outline>
    <contour>
      <point x="291" y="-150" type="line"/>
      <point x="331" y="-150" type="line"/>
      <point x="355" y="0" type="line"/>
      <point x="611" y="0" type="line"/>
      <point x="723" y="705" type="line"/>
      <point x="681" y="705" type="line"/>
      <point x="576" y="39" type="line"/>
      <point x="107" y="39" type="line"/>
      <point x="212" y="705" type="line"/>
      <point x="170" y="705" type="line"/>
      <point x="58" y="0" type="line"/>
      <point x="315" y="0" type="line"/>
    </contour>
  </outline>
</glyph>
<glyph name="Be-cy" format="2">
  <advance width="649"/>
  <unicode hex="0411"/>
  <outline>
    <contour>
      <point x="58" y="0" type="line"/>
      <point x="345" y="0" type="line" smooth="yes"/>
      <point x="502" y="0"/>
      <point x="587" y="70"/>
      <point x="587" y="209" type="curve" smooth="yes"/>
      <point x="587" y="313"/>
      <point x="516" y="379"/>
      <point x="379" y="379" type="curve" smooth="yes"/>
      <point x="160" y="379" type="line"/>
      <point x="206" y="666" type="line"/>
      <point x="586" y="666" type="line"/>
      <point x="592" y="705" type="line"/>
      <point x="170" y="705" type="line"/>
    </contour>
    <contour>
      <point x="106" y="39" type="line"/>
      <point x="154" y="340" type="line"/>
      <point x="378" y="340" type="line" smooth="yes"/>
      <point x="484" y="340"/>
      <point x="543" y="295"/>
      <point x="543" y="208" type="curve" smooth="yes"/>
      <point x="543" y="96"/>
      <point x="478" y="39"/>
      <point x="349" y="39" type="curve" smooth="yes"/>
    </contour>
  </outline>
</glyph>
<glyph name="Ge-cy" format="2">
  <advance width="527"/>
  <unicode hex="0413"/>
  <anchor x="58" y="0" name="bottomright"/>
  <anchor x="165" y="353" name="stroke"/>
  <anchor x="348" y="705" name="top"/>
  <outline>
    <contour>
      <point x="58" y="0" type="line"/>
      <point x="100" y="0" type="line"/>
      <point x="206" y="666" type="line"/>
      <point x="581" y="666" type="line"/>
      <point x="587" y="705" type="line"/>
      <point x="170" y="705" type="line"/>
    </contour>
  </outline>
</glyph>
<glyph name="Ii-cy" format="2">
  <advance width="732"/>
  <unicode hex="0418"/>
  <anchor x="559" y="0" name="bottomright"/>
  <anchor x="439" y="705" name="top"/>
  <outline>
    <contour>
      <point x="58" y="0" type="line"/>
      <point x="92" y="0" type="line"/>
      <point x="687" y="663" type="line"/>
      <point x="663" y="663" type="line"/>
      <point x="558" y="0" type="line"/>
      <point x="597" y="0" type="line"/>
      <point x="709" y="705" type="line"/>
      <point x="674" y="705" type="line"/>
      <point x="79" y="42" type="line"/>
      <point x="104" y="42" type="line"/>
      <point x="209" y="705" type="line"/>
      <point x="170" y="705" type="line"/>
    </contour>
  </outline>
</glyph>
<glyph name="Pe-cy" format="2">
  <advance width="746"/>
  <unicode hex="041F"/>
  <anchor x="569" y="0" name="bottomright"/>
  <outline>
    <contour>
      <point x="58" y="0" type="line"/>
      <point x="100" y="0" type="line"/>
      <point x="206" y="666" type="line"/>
      <point x="675" y="666" type="line"/>
      <point x="569" y="0" type="line"/>
      <point x="611" y="0" type="line"/>
      <point x="723" y="705" type="line"/>
      <point x="170" y="705" type="line"/>
    </contour>
  </outline>
</glyph>
<glyph name="U-cy" format="2">
  <advance width="628"/>
  <unicode hex="0423"/>
  <guideline x="490" y="473" angle="235.9701"/>
  <anchor x="378" y="705" name="top"/>
  <outline>
    <contour>
      <point x="172" y="0" type="line"/>
      <point x="220" y="0" type="line"/>
      <point x="696" y="705" type="line"/>
      <point x="648" y="705" type="line"/>
      <point x="334" y="240" type="line"/>
      <point x="346" y="240" type="line"/>
      <point x="127" y="705" type="line"/>
      <point x="83" y="705" type="line"/>
      <point x="322" y="198" type="line"/>
      <point x="322" y="223" type="line"/>
    </contour>
  </outline>
</glyph>
<glyph name="Tse-cy" format="2">
  <advance width="773"/>
  <unicode hex="0426"/>
  <outline>
    <contour>
      <point x="648" y="-150" type="line"/>
      <point x="688" y="-150" type="line"/>
      <point x="718" y="39" type="line"/>
      <point x="618" y="39" type="line"/>
      <point x="723" y="705" type="line"/>
      <point x="681" y="705" type="line"/>
      <point x="576" y="39" type="line"/>
      <point x="107" y="39" type="line"/>
      <point x="212" y="705" type="line"/>
      <point x="170" y="705" type="line"/>
      <point x="58" y="0" type="line"/>
      <point x="672" y="0" type="line"/>
    </contour>
  </outline>
</glyph>
<glyph name="Sha-cy" format="2">
  <advance width="1038"/>
  <unicode hex="0428"/>
  <outline>
    <contour>
      <point x="58" y="0" type="line"/>
      <point x="903" y="0" type="line"/>
      <point x="1015" y="705" type="line"/>
      <point x="973" y="705" type="line"/>
      <point x="868" y="39" type="line"/>
      <point x="509" y="39" type="line"/>
      <point x="614" y="705" type="line"/>
      <point x="572" y="705" type="line"/>
      <point x="467" y="39" type="line"/>
      <point x="107" y="39" type="line"/>
      <point x="212" y="705" type="line"/>
      <point x="170" y="705" type="line"/>
    </contour>
  </outline>
</glyph>
<glyph name="Ereversed-cy" format="2">
  <advance width="667"/>
  <unicode hex="042D"/>
  <anchor x="253" y="0" name="bottom"/>
  <anchor x="365" y="705" name="top"/>
  <outline>
    <contour>
      <point x="268" y="-8" type="curve" smooth="yes"/>
      <point x="483" y="-8"/>
      <point x="619" y="168"/>
      <point x="619" y="400" type="curve" smooth="yes"/>
      <point x="619" y="616"/>
      <point x="508" y="713"/>
      <point x="336" y="713" type="curve" smooth="yes"/>
      <point x="244" y="713"/>
      <point x="162" y="681"/>
      <point x="98" y="618" type="curve"/>
      <point x="122" y="584" type="line"/>
      <point x="188" y="646"/>
      <point x="253" y="672"/>
      <point x="335" y="672" type="curve" smooth="yes"/>
      <point x="522" y="672"/>
      <point x="583" y="550"/>
      <point x="573" y="363" type="curve"/>
      <point x="580" y="377" type="line"/>
      <point x="192" y="377" type="line"/>
      <point x="186" y="338" type="line"/>
      <point x="579" y="338" type="line"/>
      <point x="572" y="345" type="line"/>
      <point x="553" y="161"/>
      <point x="441" y="33"/>
      <point x="271" y="33" type="curve" smooth="yes"/>
      <point x="182" y="33"/>
      <point x="119" y="61"/>
      <point x="64" y="122" type="curve"/>
      <point x="39" y="87" type="line"/>
      <point x="91" y="27"/>
      <point x="170" y="-8"/>
    </contour>
  </outline>
</glyph>
<glyph name="ve-cy" format="2">
  <advance width="528"/>
  <unicode hex="0432"/>
  <outline>
    <contour>
      <point x="50" y="0" type="line"/>
      <point x="267" y="0" type="line" smooth="yes"/>
      <point x="397" y="0"/>
      <point x="457" y="51"/>
      <point x="457" y="144" type="curve" smooth="yes"/>
      <point x="457" y="212"/>
      <point x="404" y="251"/>
      <point x="339" y="251" type="curve"/>
      <point x="337" y="240" type="line"/>
      <point x="425" y="247"/>
      <point x="476" y="293"/>
      <point x="476" y="376" type="curve" smooth="yes"/>
      <point x="476" y="444"/>
      <point x="426" y="484"/>
      <point x="332" y="484" type="curve" smooth="yes"/>
      <point x="127" y="484" type="line"/>
    </contour>
    <contour>
      <point x="98" y="36" type="line"/>
      <point x="128" y="228" type="line"/>
      <point x="310" y="228" type="line" smooth="yes"/>
      <point x="377" y="228"/>
      <point x="414" y="199"/>
      <point x="414" y="143" type="curve" smooth="yes"/>
      <point x="414" y="73"/>
      <point x="374" y="36"/>
      <point x="277" y="36" type="curve" smooth="yes"/>
    </contour>
    <contour>
      <point x="134" y="264" type="line"/>
      <point x="163" y="448" type="line"/>
      <point x="334" y="448" type="line" smooth="yes"/>
      <point x="398" y="448"/>
      <point x="433" y="421"/>
      <point x="433" y="373" type="curve" smooth="yes"/>
      <point x="433" y="303"/>
      <point x="384" y="264"/>
      <point x="310" y="264" type="curve" smooth="yes"/>
    </contour>
  </outline>
</glyph>
<glyph name="ze-cy" format="2">
  <advance width="477"/>
  <unicode hex="0437"/>
  <anchor x="207" y="0" name="bottom"/>
  <anchor x="252" y="484" name="top"/>
  <outline>
    <contour>
      <point x="194" y="-8" type="curve" smooth="yes"/>
      <point x="321" y="-8"/>
      <point x="406" y="35"/>
      <point x="406" y="144" type="curve" smooth="yes"/>
      <point x="406" y="204"/>
      <point x="359" y="252"/>
      <point x="288" y="252" type="curve"/>
      <point x="286" y="240" type="line"/>
      <point x="364" y="246"/>
      <point x="425" y="293"/>
      <point x="425" y="376" type="curve" smooth="yes"/>
      <point x="425" y="445"/>
      <point x="367" y="492"/>
      <point x="264" y="492" type="curve" smooth="yes"/>
      <point x="189" y="492"/>
      <point x="121" y="472"/>
      <point x="60" y="430" type="curve"/>
      <point x="79" y="393" type="line"/>
      <point x="138" y="436"/>
      <point x="196" y="453"/>
      <point x="263" y="453" type="curve" smooth="yes"/>
      <point x="340" y="453"/>
      <point x="382" y="422"/>
      <point x="382" y="373" type="curve" smooth="yes"/>
      <point x="382" y="305"/>
      <point x="327" y="264"/>
      <point x="254" y="264" type="curve" smooth="yes"/>
      <point x="161" y="264" type="line"/>
      <point x="155" y="228" type="line"/>
      <point x="256" y="228" type="line" smooth="yes"/>
      <point x="324" y="228"/>
      <point x="362" y="193"/>
      <point x="362" y="143" type="curve" smooth="yes"/>
      <point x="362" y="60"/>
      <point x="297" y="31"/>
      <point x="195" y="31" type="curve" smooth="yes"/>
      <point x="126" y="31"/>
      <point x="70" y="50"/>
      <point x="31" y="94" type="curve"/>
      <point x="10" y="58" type="line"/>
      <point x="43" y="17"/>
      <point x="114" y="-8"/>
    </contour>
  </outline>
</glyph>
<glyph name="el-cy" format="2">
  <advance width="554"/>
  <unicode hex="043B"/>
  <anchor x="385" y="0" name="bottomright"/>
  <outline>
    <contour>
      <point x="5" y="-9" type="line"/>
      <point x="126" y="39"/>
      <point x="173" y="122"/>
      <point x="212" y="382" type="curve" smooth="yes"/>
      <point x="222" y="448" type="line"/>
      <point x="456" y="448" type="line"/>
      <point x="385" y="0" type="line"/>
      <point x="427" y="0" type="line"/>
      <point x="504" y="484" type="line"/>
      <point x="187" y="484" type="line"/>
      <point x="171" y="383" type="line" smooth="yes"/>
      <point x="134" y="148"/>
      <point x="95" y="69"/>
      <point x="-9" y="26" type="curve"/>
    </contour>
  </outline>
</glyph>
<glyph name="en-cy" format="2">
  <advance width="568"/>
  <unicode hex="043D"/>
  <anchor x="399" y="0" name="bottomright"/>
  <outline>
    <contour>
      <point x="50" y="0" type="line"/>
      <point x="92" y="0" type="line"/>
      <point x="129" y="232" type="line"/>
      <point x="436" y="232" type="line"/>
      <point x="399" y="0" type="line"/>
      <point x="441" y="0" type="line"/>
      <point x="518" y="484" type="line"/>
      <point x="476" y="484" type="line"/>
      <point x="442" y="269" type="line"/>
      <point x="135" y="269" type="line"/>
      <point x="169" y="484" type="line"/>
      <point x="127" y="484" type="line"/>
    </contour>
  </outline>
</glyph>
<glyph name="tse-cy" format="2">
  <advance width="575"/>
  <unicode hex="0446"/>
  <outline>
    <contour>
      <point x="444" y="-130" type="line"/>
      <point x="482" y="-130" type="line"/>
      <point x="508" y="36" type="line"/>
      <point x="434" y="36" type="line"/>
      <point x="505" y="484" type="line"/>
      <point x="463" y="484" type="line"/>
      <point x="392" y="36" type="line"/>
      <point x="98" y="36" type="line"/>
      <point x="169" y="484" type="line"/>
      <point x="127" y="484" type="line"/>
      <point x="50" y="0" type="line"/>
      <point x="464" y="0" type="line"/>
    </contour>
  </outline>
</glyph>
<glyph name="sha-cy" format="2">
  <advance width="770"/>
  <unicode hex="0448"/>
  <outline>
    <contour>
      <point x="50" y="0" type="line"/>
      <point x="643" y="0" type="line"/>
      <point x="720" y="484" type="line"/>
      <point x="678" y="484" type="line"/>
      <point x="607" y="36" type="line"/>
      <point x="374" y="36" type="line"/>
      <point x="445" y="484" type="line"/>
      <point x="403" y="484" type="line"/>
      <point x="332" y="36" type="line"/>
      <point x="98" y="36" type="line"/>
      <point x="169" y="484" type="line"/>
      <point x="127" y="484" type="line"/>
    </contour>
  </outline>
</glyph>
<glyph name="ereversed-cy" format="2">
  <advance width="471"/>
  <unicode hex="044D"/>
  <anchor x="240" y="484" name="top"/>
  <outline>
    <contour>
      <point x="171" y="-8" type="curve" smooth="yes"/>
      <point x="344" y="-8"/>
      <point x="416" y="141"/>
      <point x="416" y="282" type="curve" smooth="yes"/>
      <point x="416" y="406"/>
      <point x="354" y="492"/>
      <point x="220" y="492" type="curve" smooth="yes"/>
      <point x="159" y="492"/>
      <point x="97" y="469"/>
      <point x="58" y="431" type="curve"/>
      <point x="77" y="397" type="line"/>
      <point x="118" y="436"/>
      <point x="169" y="453"/>
      <point x="218" y="453" type="curve" smooth="yes"/>
      <point x="338" y="453"/>
      <point x="380" y="373"/>
      <point x="372" y="256" type="curve"/>
      <point x="382" y="266" type="line"/>
      <point x="115" y="266" type="line"/>
      <point x="110" y="230" type="line"/>
      <point x="377" y="230" type="line"/>
      <point x="370" y="239" type="line"/>
      <point x="358" y="131"/>
      <point x="299" y="31"/>
      <point x="173" y="31" type="curve" smooth="yes"/>
      <point x="110" y="31"/>
      <point x="66" y="49"/>
      <point x="29" y="88" type="curve"/>
      <point x="8" y="56" type="line"/>
      <point x="41" y="18"/>
      <point x="102" y="-8"/>
    </contour>
  </outline>
</glyph>
<glyph name="iu-cy" format="2">
  <advance width="727"/>
  <unicode hex="044E"/>
  <outline>
    <contour>
      <point x="431" y="-8" type="curve" smooth="yes"/>
      <point x="588" y="-8"/>
      <point x="673" y="130"/>
      <point x="673" y="284" type="curve" smooth="yes"/>
      <point x="673" y="414"/>
      <point x="598" y="492"/>
      <point x="479" y="492" type="curve" smooth="yes"/>
      <point x="346" y="492"/>
      <point x="265" y="393"/>
      <point x="243" y="269" type="curve"/>
      <point x="134" y="269" type="line"/>
      <point x="168" y="484" type="line"/>
      <point x="127" y="484" type="line"/>
      <point x="50" y="0" type="line"/>
      <point x="91" y="0" type="line"/>
      <point x="128" y="233" type="line"/>
      <point x="238" y="233" type="line"/>
      <point x="226" y="96"/>
      <point x="292" y="-8"/>
    </contour>
    <contour>
      <point x="433" y="31" type="curve" smooth="yes"/>
      <point x="337" y="31"/>
      <point x="280" y="88"/>
      <point x="280" y="198" type="curve" smooth="yes"/>
      <point x="280" y="337"/>
      <point x="349" y="453"/>
      <point x="477" y="453" type="curve" smooth="yes"/>
      <point x="573" y="453"/>
      <point x="630" y="396"/>
      <point x="630" y="286" type="curve" smooth="yes"/>
      <point x="630" y="147"/>
      <point x="561" y="31"/>
    </contour>
  </outline>
</glyph>
<glyph name="lje-cy" format="2">
  <advance width="859"/>
  <unicode hex="0459"/>
  <outline>
    <contour>
      <point x="5" y="-9" type="line"/>
      <point x="126" y="39"/>
      <point x="173" y="122"/>
      <point x="212" y="382" type="curve" smooth="yes"/>
      <point x="222" y="448" type="line"/>
      <point x="456" y="448" type="line"/>
      <point x="385" y="0" type="line"/>
      <point x="609" y="0" type="line" smooth="yes"/>
      <point x="730" y="0"/>
      <point x="798" y="61"/>
      <point x="798" y="159" type="curve" smooth="yes"/>
      <point x="798" y="247"/>
      <point x="740" y="300"/>
      <point x="635" y="300" type="curve" smooth="yes"/>
      <point x="475" y="300" type="line"/>
      <point x="504" y="484" type="line"/>
      <point x="187" y="484" type="line"/>
      <point x="171" y="383" type="line" smooth="yes"/>
      <point x="134" y="148"/>
      <point x="95" y="69"/>
      <point x="-9" y="26" type="curve"/>
    </contour>
    <contour>
      <point x="433" y="36" type="line"/>
      <point x="469" y="264" type="line"/>
      <point x="629" y="264" type="line" smooth="yes"/>
      <point x="709" y="264"/>
      <point x="754" y="232"/>
      <point x="754" y="158" type="curve" smooth="yes"/>
      <point x="754" y="81"/>
      <point x="705" y="36"/>
      <point x="607" y="36" type="curve" smooth="yes"/>
    </contour>
  </outline>
</glyph>
<glyph name="dzhe-cy" format="2">
  <advance width="565"/>
  <unicode hex="045F"/>
  <outline>
    <contour>
      <point x="206" y="-130" type="line"/>
      <point x="244" y="-130" type="line"/>
      <point x="264" y="0" type="line"/>
      <point x="438" y="0" type="line"/>
      <point x="515" y="484" type="line"/>
      <point x="473" y="484" type="line"/>
      <point x="402" y="36" type="line"/>
      <point x="98" y="36" type="line"/>
      <point x="169" y="484" type="line"/>
      <point x="127" y="484" type="line"/>
      <point x="50" y="0" type="line"/>
      <point x="226" y="0" type="line"/>
    </contour>
  </outline>
</glyph>
<glyph name="Yusbig-cy" format="2">
  <advance width="908"/>
  <unicode hex="046A"/>
  <outline>
    <contour>
      <point x="-21" y="0" type="line"/>
      <point x="26" y="0" type="line"/>
      <point x="160" y="210" type="line" smooth="yes"/>
      <point x="218" y="301"/>
      <point x="275" y="339"/>
      <point x="356" y="339" type="curve" smooth="yes"/>
      <point x="448" y="339" type="line"/>
      <point x="394" y="0" type="line"/>
      <point x="436" y="0" type="line"/>
      <point x="490" y="339" type="line"/>
      <point x="584" y="339" type="line" smooth="yes"/>
      <point x="663" y="339"/>
      <point x="712" y="303"/>
      <point x="742" y="210" type="curve" smooth="yes"/>
      <point x="810" y="0" type="line"/>
      <point x="853" y="0" type="line"/>
      <point x="774" y="239" type="line" smooth="yes"/>
      <point x="747" y="321"/>
      <point x="689" y="378"/>
      <point x="596" y="378" type="curve" smooth="yes"/>
      <point x="506" y="378" type="line"/>
      <point x="512" y="365" type="line"/>
      <point x="859" y="705" type="line"/>
      <point x="195" y="705" type="line"/>
      <point x="434" y="365" type="line"/>
      <point x="444" y="378" type="line"/>
      <point x="351" y="378" type="line" smooth="yes"/>
      <point x="258" y="378"/>
      <point x="193" y="334"/>
      <point x="132" y="239" type="curve" smooth="yes"/>
    </contour>
    <contour>
      <point x="472" y="382" type="line"/>
      <point x="255" y="694" type="line"/>
      <point x="251" y="666" type="line"/>
      <point x="784" y="666" type="line"/>
      <point x="788" y="694" type="line"/>
      <point x="474" y="382" type="line"/>
    </contour>
  </outline>
</glyph>
<glyph name="yusbig-cy" format="2">
  <advance width="748"/>
  <unicode hex="046B"/>
  <outline>
    <contour>
      <point x="-31" y="0" type="line"/>
      <point x="17" y="0" type="line"/>
      <point x="134" y="150" type="line" smooth="yes"/>
      <point x="186" y="216"/>
      <point x="214" y="233"/>
      <point x="280" y="233" type="curve" smooth="yes"/>
      <point x="351" y="233" type="line"/>
      <point x="314" y="0" type="line"/>
      <point x="356" y="0" type="line"/>
      <point x="393" y="233" type="line"/>
      <point x="463" y="233" type="line" smooth="yes"/>
      <point x="529" y="233"/>
      <point x="561" y="216"/>
      <point x="591" y="150" type="curve" smooth="yes"/>
      <point x="660" y="0" type="line"/>
      <point x="703" y="0" type="line"/>
      <point x="631" y="156" type="line" smooth="yes"/>
      <point x="591" y="242"/>
      <point x="552" y="269"/>
      <point x="484" y="269" type="curve" smooth="yes"/>
      <point x="410" y="269" type="line"/>
      <point x="409" y="261" type="line"/>
      <point x="638" y="484" type="line"/>
      <point x="186" y="484" type="line"/>
      <point x="345" y="261" type="line"/>
      <point x="346" y="269" type="line"/>
      <point x="274" y="269" type="line" smooth="yes"/>
      <point x="186" y="269"/>
      <point x="159" y="242"/>
      <point x="91" y="156" type="curve" smooth="yes"/>
    </contour>
    <contour>
      <point x="376" y="283" type="line"/>
      <point x="252" y="463" type="line"/>
      <point x="249" y="448" type="line"/>
      <point x="557" y="448" type="line"/>
      <point x="560" y="463" type="line"/>
      <point x="378" y="283" type="line"/>
    </contour>
  </outline>
</glyph>
<glyph name="Gheupturn-cy" format="2">
  <advance width="527"/>
  <unicode hex="0490"/>
  <outline>
    <contour>
      <point x="58" y="0" type="line"/>
      <point x="100" y="0" type="line"/>
      <point x="206" y="666" type="line"/>
      <point x="581" y="666" type="line"/>
      <point x="611" y="855" type="line"/>
      <point x="571" y="855" type="line"/>
      <point x="547" y="705" type="line"/>
      <point x="170" y="705" type="line"/>
    </contour>
  </outline>
</glyph>
<glyph name="gheupturn-cy" format="2">
  <advance width="415"/>
  <unicode hex="0491"/>
  <outline>
    <contour>
      <point x="50" y="0" type="line"/>
      <point x="92" y="0" type="line"/>
      <point x="163" y="447" type="line"/>
      <point x="435" y="447" type="line"/>
      <point x="460" y="602" type="line"/>
      <point x="422" y="602" type="line"/>
      <point x="403" y="484" type="line"/>
      <point x="127" y="484" type="line"/>
    </contour>
  </outline>
</glyph>
<glyph name="Zedescender-cy" format="2">
  <advance width="645"/>
  <unicode hex="0498"/>
  <outline>
    <contour>
      <point x="244" y="-150" type="line"/>
      <point x="284" y="-150" type="line"/>
      <point x="306" y="-8" type="line"/>
      <point x="447" y="-8"/>
      <point x="566" y="51"/>
      <point x="566" y="203" type="curve" smooth="yes"/>
      <point x="566" y="283"/>
      <point x="519" y="341"/>
      <point x="443" y="360" type="curve"/>
      <point x="443" y="353" type="line"/>
      <point x="541" y="373"/>
      <point x="603" y="441"/>
      <point x="603" y="545" type="curve" smooth="yes"/>
      <point x="603" y="660"/>
      <point x="501" y="713"/>
      <point x="382" y="713" type="curve" smooth="yes"/>
      <point x="289" y="713"/>
      <point x="187" y="682"/>
      <point x="114" y="620" type="curve"/>
      <point x="135" y="584" type="line"/>
      <point x="204" y="644"/>
      <point x="295" y="672"/>
      <point x="382" y="672" type="curve" smooth="yes"/>
      <point x="479" y="672"/>
      <point x="559" y="634"/>
      <point x="559" y="543" type="curve" smooth="yes"/>
      <point x="559" y="435"/>
      <point x="483" y="376"/>
      <point x="365" y="376" type="curve" smooth="yes"/>
      <point x="193" y="376" type="line"/>
      <point x="187" y="337" type="line"/>
      <point x="358" y="337" type="line" smooth="yes"/>
      <point x="464" y="337"/>
      <point x="522" y="292"/>
      <point x="522" y="204" type="curve" smooth="yes"/>
      <point x="522" y="75"/>
      <point x="425" y="33"/>
      <point x="311" y="33" type="curve" smooth="yes"/>
      <point x="207" y="33"/>
      <point x="130" y="52"/>
      <point x="51" y="120" type="curve"/>
      <point x="28" y="85" type="line"/>
      <point x="95" y="27"/>
      <point x="167" y="-1"/>
      <point x="266" y="-7" type="curve"/>
    </contour>
  </outline>
</glyph>
<glyph name="kaverticalstroke-cy" format="2">
  <advance width="497"/>
  <unicode hex="049D"/>
  <outline>
    <contour>
      <point x="50" y="0" type="line"/>
      <point x="92" y="0" type="line"/>
      <point x="129" y="233" type="line"/>
      <point x="190" y="233" type="line"/>
      <point x="170" y="110" type="line"/>
      <point x="206" y="110" type="line"/>
      <point x="226" y="240" type="line"/>
      <point x="214" y="233" type="line"/>
      <point x="220" y="233" type="line" smooth="yes"/>
      <point x="278" y="233"/>
      <point x="310" y="216"/>
      <point x="340" y="150" type="curve" smooth="yes"/>
      <point x="409" y="0" type="line"/>
      <point x="452" y="0" type="line"/>
      <point x="380" y="156" type="line" smooth="yes"/>
      <point x="340" y="242"/>
      <point x="301" y="265"/>
      <point x="253" y="268" type="curve"/>
      <point x="280" y="256" type="line"/>
      <point x="501" y="484" type="line"/>
      <point x="449" y="484" type="line"/>
      <point x="240" y="269" type="line"/>
      <point x="231" y="269" type="line"/>
      <point x="249" y="384" type="line"/>
      <point x="213" y="384" type="line"/>
      <point x="195" y="269" type="line"/>
      <point x="135" y="269" type="line"/>
      <point x="169" y="484" type="line"/>
      <point x="127" y="484" type="line"/>
    </contour>
  </outline>
</glyph>
<glyph name="endescender-cy" format="2">
  <advance width="588"/>
  <unicode hex="04A3"/>
  <outline>
    <contour>
      <point x="454" y="-130" type="line"/>
      <point x="492" y="-130" type="line"/>
      <point x="519" y="37" type="line"/>
      <point x="447" y="37" type="line"/>
      <point x="518" y="484" type="line"/>
      <point x="476" y="484" type="line"/>
      <point x="442" y="269" type="line"/>
      <point x="135" y="269" type="line"/>
      <point x="169" y="484" type="line"/>
      <point x="127" y="484" type="line"/>
      <point x="50" y="0" type="line"/>
      <point x="92" y="0" type="line"/>
      <point x="129" y="232" type="line"/>
      <point x="436" y="232" type="line"/>
      <point x="399" y="0" type="line"/>
      <point x="475" y="0" type="line"/>
    </contour>
  </outline>
</glyph>
<glyph name="enghe-cy" format="2">
  <advance width="727"/>
  <unicode hex="04A5"/>
  <outline>
    <contour>
      <point x="50" y="0" type="line"/>
      <point x="92" y="0" type="line"/>
      <point x="129" y="232" type="line"/>
      <point x="436" y="232" type="line"/>
      <point x="399" y="0" type="line"/>
      <point x="441" y="0" type="line"/>
      <point x="512" y="447" type="line"/>
      <point x="747" y="447" type="line"/>
      <point x="753" y="484" type="line"/>
      <point x="476" y="484" type="line"/>
      <point x="442" y="269" type="line"/>
      <point x="135" y="269" type="line"/>
      <point x="169" y="484" type="line"/>
      <point x="127" y="484" type="line"/>
    </contour>
  </outline>
</glyph>
<glyph name="ustraight-cy" format="2">
  <advance width="510"/>
  <unicode hex="04AF"/>
  <anchor x="212" y="-25" name="center"/>
  <outline>
    <contour>
      <point x="167" y="-180" type="line"/>
      <point x="209" y="-180" type="line"/>
      <point x="236" y="-7" type="line"/>
      <point x="523" y="484" type="line"/>
      <point x="474" y="484" type="line"/>
      <point x="204" y="15" type="line"/>
      <point x="228" y="15" type="line"/>
      <point x="109" y="484" type="line"/>
      <point x="63" y="484" type="line"/>
      <point x="194" y="-7" type="line"/>
    </contour>
  </outline>
</glyph>
<glyph name="ustraightstroke-cy" format="2">
  <advance width="510"/>
  <unicode hex="04B1"/>
  <outline>
    <contour>
      <point x="167" y="-180" type="line"/>
      <point x="209" y="-180" type="line"/>
      <point x="232" y="-36" type="line"/>
      <point x="350" y="-36" type="line"/>
      <point x="356" y="0" type="line"/>
      <point x="233" y="0" type="line"/>
      <point x="231" y="-16" type="line"/>
      <point x="523" y="484" type="line"/>
      <point x="474" y="484" type="line"/>
      <point x="204" y="15" type="line"/>
      <point x="228" y="15" type="line"/>
      <point x="109" y="484" type="line"/>
      <point x="63" y="484" type="line"/>
      <point x="197" y="-16" type="line"/>
      <point x="199" y="0" type="line"/>
      <point x="78" y="0" type="line"/>
      <point x="72" y="-36" type="line"/>
      <point x="190" y="-36" type="line"/>
    </contour>
  </outline>
</glyph>
<glyph name="tetse-cy" format="2">
  <advance width="656"/>
  <unicode hex="04B5"/>
  <outline>
    <contour>
      <point x="525" y="-130" type="line"/>
      <point x="563" y="-130" type="line"/>
      <point x="589" y="36" type="line"/>
      <point x="515" y="36" type="line"/>
      <point x="586" y="484" type="line"/>
      <point x="544" y="484" type="line"/>
      <point x="473" y="36" type="line"/>
      <point x="172" y="36" type="line"/>
      <point x="237" y="447" type="line"/>
      <point x="397" y="447" type="line"/>
      <point x="403" y="484" type="line"/>
      <point x="41" y="484" type="line"/>
      <point x="35" y="447" type="line"/>
      <point x="195" y="447" type="line"/>
      <point x="124" y="0" type="line"/>
      <point x="545" y="0" type="line"/>
    </contour>
  </outline>
</glyph>
<glyph name="Cheverticalstroke-cy" format="2">
  <advance width="657"/>
  <unicode hex="04B8"/>
  <outline>
    <contour>
      <point x="480" y="0" type="line"/>
      <point x="522" y="0" type="line"/>
      <point x="634" y="705" type="line"/>
      <point x="592" y="705" type="line"/>
      <point x="538" y="364" type="line"/>
      <point x="479" y="331"/>
      <point x="410" y="318"/>
      <point x="344" y="317" type="curve"/>
      <point x="348" y="307" type="line"/>
      <point x="378" y="498" type="line"/>
      <point x="342" y="498" type="line"/>
      <point x="312" y="309" type="line"/>
      <point x="323" y="317" type="line"/>
      <point x="183" y="321"/>
      <point x="127" y="399"/>
      <point x="154" y="565" type="curve" smooth="yes"/>
      <point x="177" y="705" type="line"/>
      <point x="135" y="705" type="line"/>
      <point x="112" y="559" type="line" smooth="yes"/>
      <point x="84" y="379"/>
      <point x="154" y="284"/>
      <point x="314" y="276" type="curve"/>
      <point x="308" y="282" type="line"/>
      <point x="281" y="115" type="line"/>
      <point x="317" y="115" type="line"/>
      <point x="344" y="284" type="line"/>
      <point x="338" y="276" type="line"/>
      <point x="406" y="277"/>
      <point x="479" y="291"/>
      <point x="530" y="318" type="curve"/>
    </contour>
  </outline>
</glyph>
<glyph name="cheverticalstroke-cy" format="2">
  <advance width="532"/>
  <unicode hex="04B9"/>
  <outline>
    <contour>
      <point x="363" y="0" type="line"/>
      <point x="405" y="0" type="line"/>
      <point x="482" y="484" type="line"/>
      <point x="440" y="484" type="line"/>
      <point x="404" y="255" type="line"/>
      <point x="360" y="226"/>
      <point x="319" y="214"/>
      <point x="267" y="212" type="curve"/>
      <point x="273" y="206" type="line"/>
      <point x="294" y="341" type="line"/>
      <point x="258" y="341" type="line"/>
      <point x="237" y="206" type="line"/>
      <point x="244" y="212" type="line"/>
      <point x="148" y="215"/>
      <point x="112" y="262"/>
      <point x="128" y="365" type="curve" smooth="yes"/>
      <point x="147" y="484" type="line"/>
      <point x="105" y="484" type="line"/>
      <point x="86" y="364" type="line" smooth="yes"/>
      <point x="67" y="242"/>
      <point x="120" y="178"/>
      <point x="240" y="173" type="curve"/>
      <point x="233" y="181" type="line"/>
      <point x="215" y="70" type="line"/>
      <point x="251" y="70" type="line"/>
      <point x="268" y="179" type="line"/>
      <point x="262" y="173" type="line"/>
      <point x="314" y="175"/>
      <point x="356" y="188"/>
      <point x="397" y="214" type="curve"/>
    </contour>
  </outline>
</glyph>
<glyph name="Cheabkhasian-cy" format="2">
  <advance width="888"/>
  <unicode hex="04BC"/>
  <anchor x="537" y="0" name="ogonek"/>
  <outline>
    <contour>
      <point x="507" y="-8" type="curve" smooth="yes"/>
      <point x="614" y="-8"/>
      <point x="712" y="20"/>
      <point x="781" y="79" type="curve"/>
      <point x="760" y="115" type="line"/>
      <point x="691" y="61"/>
      <point x="623" y="33"/>
      <point x="514" y="33" type="curve" smooth="yes"/>
      <point x="341" y="33"/>
      <point x="246" y="157"/>
      <point x="266" y="340" type="curve"/>
      <point x="256" y="329" type="line"/>
      <point x="836" y="329" type="line"/>
      <point x="840" y="356" type="line" smooth="yes"/>
      <point x="867" y="535"/>
      <point x="788" y="713"/>
      <point x="571" y="713" type="curve" smooth="yes"/>
      <point x="370" y="713"/>
      <point x="243" y="572"/>
      <point x="222" y="355" type="curve"/>
      <point x="233" y="368" type="line"/>
      <point x="207" y="368" type="line" smooth="yes"/>
      <point x="129" y="368"/>
      <point x="95" y="404"/>
      <point x="108" y="486" type="curve" smooth="yes"/>
      <point x="117" y="542" type="line"/>
      <point x="75" y="542" type="line"/>
      <point x="66" y="483" type="line" smooth="yes"/>
      <point x="50" y="378"/>
      <point x="103" y="329"/>
      <point x="209" y="329" type="curve" smooth="yes"/>
      <point x="231" y="329" type="line"/>
      <point x="221" y="343" type="line"/>
      <point x="198" y="138"/>
      <point x="320" y="-8"/>
    </contour>
    <contour>
      <point x="565" y="672" type="curve" smooth="yes"/>
      <point x="760" y="672"/>
      <point x="820" y="527"/>
      <point x="796" y="352" type="curve"/>
      <point x="810" y="368" type="line"/>
      <point x="260" y="368" type="line"/>
      <point x="268" y="360" type="line"/>
      <point x="288" y="541"/>
      <point x="391" y="672"/>
    </contour>
  </outline>
</glyph>
<glyph name="Kahook-cy" format="2">
  <advance width="641"/>
  <unicode hex="04C3"/>
  <outline>
    <contour>
      <point x="331" y="-188" type="curve" smooth="yes"/>
      <point x="454" y="-188"/>
      <point x="521" y="-108"/>
      <point x="547" y="43" type="curve" smooth="yes"/>
      <point x="556" y="96" type="line" smooth="yes"/>
      <point x="588" y="284"/>
      <point x="504" y="376"/>
      <point x="327" y="377" type="curve"/>
      <point x="338" y="359" type="line"/>
      <point x="629" y="705" type="line"/>
      <point x="578" y="705" type="line"/>
      <point x="291" y="363" type="line"/>
      <point x="317" y="378" type="line"/>
      <point x="160" y="378" type="line"/>
      <point x="212" y="705" type="line"/>
      <point x="170" y="705" type="line"/>
      <point x="58" y="0" type="line"/>
      <point x="100" y="0" type="line"/>
      <point x="154" y="339" type="line"/>
      <point x="314" y="339" type="line" smooth="yes"/>
      <point x="478" y="339"/>
      <point x="543" y="266"/>
      <point x="514" y="90" type="curve" smooth="yes"/>
      <point x="506" y="42" type="line" smooth="yes"/>
      <point x="485" y="-86"/>
      <point x="425" y="-149"/>
      <point x="330" y="-149" type="curve" smooth="yes"/>
      <point x="291" y="-149"/>
      <point x="259" y="-142"/>
      <point x="235" y="-130" type="curve"/>
      <point x="225" y="-167" type="line"/>
      <point x="238" y="-179"/>
      <point x="287" y="-188"/>
    </contour>
  </outline>
</glyph>
<glyph name="hahook-cy" format="2">
  <advance width="512"/>
  <unicode hex="04FD"/>
  <outline>
    <contour>
      <point x="280" y="-183" type="line"/>
      <point x="375" y="-174"/>
      <point x="426" y="-120"/>
      <point x="426" y="-40" type="curve" smooth="yes"/>
      <point x="426" y="14"/>
      <point x="405" y="59"/>
      <point x="362" y="125" type="curve" smooth="yes"/>
      <point x="276" y="259" type="line"/>
      <point x="278" y="240" type="line"/>
      <point x="508" y="484" type="line"/>
      <point x="454" y="484" type="line"/>
      <point x="255" y="270" type="line"/>
      <point x="266" y="270" type="line"/>
      <point x="129" y="484" type="line"/>
      <point x="82" y="484" type="line"/>
      <point x="241" y="237" type="line"/>
      <point x="243" y="261" type="line"/>
      <point x="-6" y="0" type="line"/>
      <point x="47" y="0" type="line"/>
      <point x="261" y="225" type="line"/>
      <point x="250" y="227" type="line"/>
      <point x="329" y="103" type="line" smooth="yes"/>
      <point x="369" y="40"/>
      <point x="386" y="3"/>
      <point x="386" y="-32" type="curve" smooth="yes"/>
      <point x="386" y="-105"/>
      <point x="349" y="-138"/>
      <point x="271" y="-148" type="curve"/>
    </contour>
  </outline>
</glyph>
<glyph name="Elhook-cy" format="2">
  <advance width="731"/>
  <unicode hex="0512"/>
  <outline>
    <contour>
      <point x="386" y="-193" type="line"/>
      <point x="429" y="-190" type="line" smooth="yes"/>
      <point x="516" y="-184"/>
      <point x="576" y="-129"/>
      <point x="592" y="-26" type="curve" smooth="yes"/>
      <point x="708" y="705" type="line"/>
      <point x="268" y="705" type="line"/>
      <point x="232" y="475" type="line" smooth="yes"/>
      <point x="179" y="137"/>
      <point x="91" y="75"/>
      <point x="-14" y="25" type="curve"/>
      <point x="3" y="-13" type="line"/>
      <point x="135" y="48"/>
      <point x="219" y="146"/>
      <point x="270" y="465" type="curve" smooth="yes"/>
      <point x="302" y="666" type="line"/>
      <point x="660" y="666" type="line"/>
      <point x="551" y="-22" type="line" smooth="yes"/>
      <point x="538" y="-102"/>
      <point x="495" y="-147"/>
      <point x="425" y="-152" type="curve" smooth="yes"/>
      <point x="384" y="-155" type="line"/>
    </contour>
  </outline>
</glyph>
<glyph name="elhook-cy" format="2">
  <advance width="554"/>
  <unicode hex="0513"/>
  <outline>
    <contour>
      <point x="217" y="-193" type="line"/>
      <point x="260" y="-190" type="line" smooth="yes"/>
      <point x="347" y="-184"/>
      <point x="407" y="-129"/>
      <point x="423" y="-26" type="curve" smooth="yes"/>
      <point x="504" y="484" type="line"/>
      <point x="187" y="484" type="line"/>
      <point x="171" y="383" type="line" smooth="yes"/>
      <point x="134" y="148"/>
      <point x="95" y="69"/>
      <point x="-9" y="26" type="curve"/>
      <point x="5" y="-9" type="line"/>
      <point x="126" y="39"/>
      <point x="173" y="122"/>
      <point x="212" y="382" type="curve" smooth="yes"/>
      <point x="222" y="448" type="line"/>
      <point x="456" y="448" type="line"/>
      <point x="382" y="-22" type="line" smooth="yes"/>
      <point x="369" y="-102"/>
      <point x="326" y="-147"/>
      <point x="256" y="-152" type="curve" smooth="yes"/>
      <point x="215" y="-155" type="line"/>
    </contour>
  </outline>
</glyph>
<glyph name="Pedescender-cy" format="2">
  <advance width="780"/>
  <unicode hex="0524"/>
  <outline>
    <contour>
      <point x="646" y="-150" type="line"/>
      <point x="686" y="-150" type="line"/>
      <point x="717" y="39" type="line"/>
      <point x="617" y="39" type="line"/>
      <point x="723" y="705" type="line"/>
      <point x="170" y="705" type="line"/>
      <point x="58" y="0" type="line"/>
      <point x="100" y="0" type="line"/>
      <point x="206" y="666" type="line"/>
      <point x="675" y="666" type="line"/>
      <point x="569" y="0" type="line"/>
      <point x="670" y="0" type="line"/>
    </contour>
  </outline>
</glyph>
<glyph name="enlefthook-cy" format="2">
  <advance width="568"/>
  <unicode hex="0529"/>
  <anchor x="399" y="0" name="bottomright"/>
  <outline>
    <contour>
      <point x="-119" y="-193" type="line"/>
      <point x="-76" y="-190" type="line" smooth="yes"/>
      <point x="11" y="-184"/>
      <point x="71" y="-129"/>
      <point x="87" y="-26" type="curve" smooth="yes"/>
      <point x="128" y="232" type="line"/>
      <point x="436" y="232" type="line"/>
      <point x="399" y="0" type="line"/>
      <point x="441" y="0" type="line"/>
      <point x="518" y="484" type="line"/>
      <point x="476" y="484" type="line"/>
      <point x="442" y="269" type="line"/>
      <point x="134" y="269" type="line"/>
      <point x="168" y="484" type="line"/>
      <point x="126" y="484" type="line"/>
      <point x="46" y="-22" type="line" smooth="yes"/>
      <point x="33" y="-102"/>
      <point x="-10" y="-147"/>
      <point x="-80" y="-152" type="curve" smooth="yes"/>
      <point x="-121" y="-155" type="line"/>
    </contour>
  </outline>
</glyph>
<glyph name="Eldescender-cy" format="2">
  <advance width="765"/>
  <unicode hex="052E"/>
  <outline>
    <contour>
      <point x="632" y="-150" type="line"/>
      <point x="672" y="-150" type="line"/>
      <point x="703" y="39" type="line"/>
      <point x="602" y="39" type="line"/>
      <point x="708" y="705" type="line"/>
      <point x="268" y="705" type="line"/>
      <point x="232" y="475" type="line" smooth="yes"/>
      <point x="179" y="137"/>
      <point x="91" y="75"/>
      <point x="-14" y="26" type="curve"/>
      <point x="0" y="-13" type="line"/>
      <point x="140" y="48"/>
      <point x="219" y="146"/>
      <point x="270" y="465" type="curve" smooth="yes"/>
      <point x="302" y="666" type="line"/>
      <point x="660" y="666" type="line"/>
      <point x="554" y="0" type="line"/>
      <point x="656" y="0" type="line"/>
    </contour>
  </outline>
</glyph>
<glyph name="quotesinglbase" format="2">
  <advance width="211"/>
  <unicode hex="201A"/>
  <outline>
    <contour>
      <point x="47" y="-98" type="line"/>
      <point x="86" y="-65"/>
      <point x="96" y="-34"/>
      <point x="103" y="9" type="curve" smooth="yes"/>
      <point x="113" y="70" type="line"/>
      <point x="44" y="70" type="line"/>
      <point x="33" y="0" type="line"/>
      <point x="84" y="0" type="line"/>
      <point x="66" y="6" type="line"/>
      <point x="62" y="-20"/>
      <point x="57" y="-42"/>
      <point x="24" y="-74" type="curve"/>
    </contour>
  </outline>
</glyph>
<glyph name="dagger" format="2">
  <advance width="306"/>
  <unicode hex="2020"/>
  <outline>
    <contour>
      <point x="122" y="157" type="line"/>
      <point x="156" y="157" type="line"/>
      <point x="219" y="553" type="line"/>
      <point x="335" y="553" type="line"/>
      <point x="340" y="585" type="line"/>
      <point x="224" y="585" type="line"/>
      <point x="243" y="705" type="line"/>
      <point x="209" y="705" type="line"/>
      <point x="190" y="585" type="line"/>
      <point x="74" y="585" type="line"/>
      <point x="69" y="553" type="line"/>
      <point x="185" y="553" type="line"/>
    </contour>
  </outline>
</glyph>
<glyph name="daggerdbl" format="2">
  <advance width="306"/>
  <unicode hex="2021"/>
  <outline>
    <contour>
      <point x="122" y="157" type="line"/>
      <point x="156" y="157" type="line"/>
      <point x="175" y="277" type="line"/>
      <point x="291" y="277" type="line"/>
      <point x="296" y="309" type="line"/>
      <point x="180" y="309" type="line"/>
      <point x="219" y="553" type="line"/>
      <point x="335" y="553" type="line"/>
      <point x="340" y="585" type="line"/>
      <point x="224" y="585" type="line"/>
      <point x="243" y="705" type="line"/>
      <point x="209" y="705" type="line"/>
      <point x="190" y="585" type="line"/>
      <point x="74" y="585" type="line"/>
      <point x="69" y="553" type="line"/>
      <point x="185" y="553" type="line"/>
      <point x="146" y="309" type="line"/>
      <point x="30" y="309" type="line"/>
      <point x="25" y="277" type="line"/>
      <point x="141" y="277" type="line"/>
    </contour>
  </outline>
</glyph>
<glyph name="naira" format="2">
  <advance width="600"/>
  <unicode hex="20A6"/>
  <outline>
    <contour>
      <point x="76" y="0" type="line"/>
      <point x="115" y="0" type="line"/>
      <point x="218" y="649" type="line"/>
      <point x="204" y="649" type="line"/>
      <point x="409" y="0" type="line"/>
      <point x="446" y="0" type="line"/>
      <point x="487" y="259" type="line"/>
      <point x="588" y="259" type="line"/>
      <point x="594" y="295" type="line"/>
      <point x="493" y="295" type="line"/>
      <point x="511" y="409" type="line"/>
      <point x="612" y="409" type="line"/>
      <point x="618" y="445" type="line"/>
      <point x="517" y="445" type="line"/>
      <point x="558" y="705" type="line"/>
      <point x="519" y="705" type="line"/>
      <point x="416" y="56" type="line"/>
      <point x="431" y="56" type="line"/>
      <point x="226" y="705" type="line"/>
      <point x="188" y="705" type="line"/>
      <point x="147" y="445" type="line"/>
      <point x="46" y="445" type="line"/>
      <point x="40" y="409" type="line"/>
      <point x="141" y="409" type="line"/>
      <point x="123" y="295" type="line"/>
      <point x="22" y="295" type="line"/>
      <point x="16" y="259" type="line"/>
      <point x="117" y="259" type="line"/>
    </contour>
  </outline>
</glyph>
<glyph name="euro" format="2">
  <advance width="600"/>
  <unicode hex="20AC"/>
  <outline>
    <contour>
      <point x="361" y="-8" type="curve" smooth="yes"/>
      <point x="440" y="-8"/>
      <point x="515" y="20"/>
      <point x="563" y="88" type="curve"/>
      <point x="539" y="122" type="line"/>
      <point x="496" y="55"/>
      <point x="431" y="33"/>
      <point x="364" y="33" type="curve" smooth="yes"/>
      <point x="268" y="33"/>
      <point x="183" y="109"/>
      <point x="175" y="267" type="curve"/>
      <point x="166" y="260" type="line"/>
      <point x="363" y="260" type="line"/>
      <point x="369" y="296" type="line"/>
      <point x="166" y="296" type="line"/>
      <point x="175" y="286" type="line"/>
      <point x="174" y="330"/>
      <point x="178" y="375"/>
      <point x="186" y="417" type="curve"/>
      <point x="175" y="410" type="line"/>
      <point x="386" y="410" type="line"/>
      <point x="392" y="446" type="line"/>
      <point x="181" y="446" type="line"/>
      <point x="190" y="434" type="line"/>
      <point x="220" y="569"/>
      <point x="292" y="672"/>
      <point x="418" y="672" type="curve" smooth="yes"/>
      <point x="486" y="672"/>
      <point x="552" y="641"/>
      <point x="597" y="579" type="curve"/>
      <point x="621" y="611" type="line"/>
      <point x="583" y="672"/>
      <point x="497" y="713"/>
      <point x="421" y="713" type="curve" smooth="yes"/>
      <point x="270" y="713"/>
      <point x="180" y="595"/>
      <point x="146" y="437" type="curve"/>
      <point x="157" y="446" type="line"/>
      <point x="46" y="446" type="line"/>
      <point x="40" y="410" type="line"/>
      <point x="147" y="410" type="line"/>
      <point x="142" y="417" type="line"/>
      <point x="133" y="374"/>
      <point x="129" y="330"/>
      <point x="130" y="284" type="curve"/>
      <point x="142" y="296" type="line"/>
      <point x="23" y="296" type="line"/>
      <point x="17" y="260" type="line"/>
      <point x="140" y="260" type="line"/>
      <point x="130" y="271" type="line"/>
      <point x="137" y="89"/>
      <point x="242" y="-8"/>
    </contour>
  </outline>
</glyph>
<glyph name="peso" format="2">
  <advance width="600"/>
  <unicode hex="20B1"/>
  <outline>
    <contour>
      <point x="76" y="0" type="line"/>
      <point x="118" y="0" type="line"/>
      <point x="160" y="265" type="line"/>
      <point x="287" y="265" type="line" smooth="yes"/>
      <point x="404" y="265"/>
      <point x="488" y="311"/>
      <point x="523" y="397" type="curve"/>
      <point x="514" y="391" type="line"/>
      <point x="609" y="391" type="line"/>
      <point x="615" y="428" type="line"/>
      <point x="528" y="428" type="line"/>
      <point x="531" y="419" type="line"/>
      <point x="542" y="458"/>
      <point x="545" y="515"/>
      <point x="538" y="552" type="curve"/>
      <point x="532" y="542" type="line"/>
      <point x="633" y="542" type="line"/>
      <point x="639" y="578" type="line"/>
      <point x="525" y="578" type="line"/>
      <point x="535" y="569" type="line"/>
      <point x="513" y="663"/>
      <point x="441" y="705"/>
      <point x="328" y="705" type="curve" smooth="yes"/>
      <point x="188" y="705" type="line"/>
      <point x="168" y="578" type="line"/>
      <point x="67" y="578" type="line"/>
      <point x="61" y="542" type="line"/>
      <point x="162" y="542" type="line"/>
      <point x="144" y="428" type="line"/>
      <point x="43" y="428" type="line"/>
      <point x="37" y="391" type="line"/>
      <point x="138" y="391" type="line"/>
    </contour>
    <contour>
      <point x="166" y="304" type="line"/>
      <point x="224" y="666" type="line"/>
      <point x="328" y="666" type="line" smooth="yes"/>
      <point x="439" y="666"/>
      <point x="498" y="621"/>
      <point x="498" y="504" type="curve" smooth="yes"/>
      <point x="498" y="368"/>
      <point x="423" y="304"/>
      <point x="291" y="304" type="curve" smooth="yes"/>
    </contour>
  </outline>
</glyph>
<glyph name="hryvnia" format="2">
  <advance width="600"/>
  <unicode hex="20B4"/>
  <outline>
    <contour>
      <point x="248" y="-8" type="curve" smooth="yes"/>
      <point x="353" y="-8"/>
      <point x="443" y="29"/>
      <point x="498" y="88" type="curve"/>
      <point x="483" y="123" type="line"/>
      <point x="416" y="62"/>
      <point x="339" y="33"/>
      <point x="252" y="33" type="curve" smooth="yes"/>
      <point x="159" y="33"/>
      <point x="109" y="62"/>
      <point x="109" y="114" type="curve" smooth="yes"/>
      <point x="109" y="173"/>
      <point x="155" y="225"/>
      <point x="213" y="263" type="curve"/>
      <point x="185" y="260" type="line"/>
      <point x="519" y="260" type="line"/>
      <point x="525" y="296" type="line"/>
      <point x="249" y="296" type="line"/>
      <point x="249" y="288" type="line"/>
      <point x="431" y="416" type="line"/>
      <point x="403" y="410" type="line"/>
      <point x="543" y="410" type="line"/>
      <point x="549" y="446" type="line"/>
      <point x="461" y="446" type="line"/>
      <point x="459" y="437" type="line"/>
      <point x="522" y="486"/>
      <point x="567" y="533"/>
      <point x="567" y="601" type="curve" smooth="yes"/>
      <point x="567" y="668"/>
      <point x="501" y="713"/>
      <point x="403" y="713" type="curve" smooth="yes"/>
      <point x="309" y="713"/>
      <point x="231" y="684"/>
      <point x="158" y="624" type="curve"/>
      <point x="180" y="589" type="line"/>
      <point x="251" y="647"/>
      <point x="317" y="672"/>
      <point x="401" y="672" type="curve" smooth="yes"/>
      <point x="481" y="672"/>
      <point x="525" y="645"/>
      <point x="525" y="597" type="curve" smooth="yes"/>
      <point x="525" y="531"/>
      <point x="475" y="491"/>
      <point x="403" y="439" type="curve"/>
      <point x="434" y="446" type="line"/>
      <point x="111" y="446" type="line"/>
      <point x="105" y="410" type="line"/>
      <point x="370" y="410" type="line"/>
      <point x="371" y="418" type="line"/>
      <point x="184" y="288" type="line"/>
      <point x="213" y="296" type="line"/>
      <point x="88" y="296" type="line"/>
      <point x="82" y="260" type="line"/>
      <point x="158" y="260" type="line"/>
      <point x="160" y="269" type="line"/>
      <point x="96" y="221"/>
      <point x="67" y="172"/>
      <point x="67" y="112" type="curve" smooth="yes"/>
      <point x="67" y="36"/>
      <point x="137" y="-8"/>
    </contour>
  </outline>
</glyph>
<glyph name="rupeeIndian" format="2">
  <advance width="600"/>
  <unicode hex="20B9"/>
  <outline>
    <contour>
      <point x="433" y="0" type="line"/>
      <point x="477" y="0" type="line"/>
      <point x="349" y="241" type="line" smooth="yes"/>
      <point x="316" y="303"/>
      <point x="286" y="325"/>
      <point x="244" y="325" type="curve" smooth="yes"/>
      <point x="238" y="325" type="line"/>
      <point x="247" y="317" type="line"/>
      <point x="430" y="317"/>
      <point x="513" y="398"/>
      <point x="515" y="524" type="curve"/>
      <point x="507" y="517" type="line"/>
      <point x="621" y="517" type="line"/>
      <point x="627" y="553" type="line"/>
      <point x="506" y="553" type="line"/>
      <point x="515" y="544" type="line"/>
      <point x="511" y="607"/>
      <point x="482" y="652"/>
      <point x="432" y="678" type="curve"/>
      <point x="412" y="669" type="line"/>
      <point x="645" y="669" type="line"/>
      <point x="651" y="705" type="line"/>
      <point x="94" y="705" type="line"/>
      <point x="88" y="669" type="line"/>
      <point x="301" y="669" type="line" smooth="yes"/>
      <point x="405" y="669"/>
      <point x="464" y="630"/>
      <point x="470" y="545" type="curve"/>
      <point x="478" y="553" type="line"/>
      <point x="70" y="553" type="line"/>
      <point x="64" y="517" type="line"/>
      <point x="478" y="517" type="line"/>
      <point x="471" y="523" type="line"/>
      <point x="469" y="412"/>
      <point x="398" y="353"/>
      <point x="268" y="353" type="curve" smooth="yes"/>
      <point x="38" y="353" type="line"/>
      <point x="32" y="314" type="line"/>
      <point x="169" y="314" type="line" smooth="yes"/>
      <point x="257" y="314"/>
      <point x="280" y="286"/>
      <point x="312" y="226" type="curve" smooth="yes"/>
    </contour>
  </outline>
</glyph>
<glyph name="liraTurkish" format="2">
  <advance width="600"/>
  <unicode hex="20BA"/>
  <outline>
    <contour>
      <point x="144" y="0" type="line"/>
      <point x="331" y="0" type="line" smooth="yes"/>
      <point x="455" y="0"/>
      <point x="515" y="46"/>
      <point x="532" y="159" type="curve" smooth="yes"/>
      <point x="541" y="220" type="line"/>
      <point x="501" y="220" type="line"/>
      <point x="493" y="167" type="line" smooth="yes"/>
      <point x="478" y="76"/>
      <point x="432" y="39"/>
      <point x="334" y="39" type="curve" smooth="yes"/>
      <point x="193" y="39" type="line"/>
      <point x="233" y="295" type="line"/>
      <point x="444" y="403" type="line"/>
      <point x="451" y="447" type="line"/>
      <point x="239" y="339" type="line"/>
      <point x="257" y="451" type="line"/>
      <point x="469" y="559" type="line"/>
      <point x="476" y="603" type="line"/>
      <point x="264" y="495" type="line"/>
      <point x="297" y="705" type="line"/>
      <point x="255" y="705" type="line"/>
      <point x="218" y="472" type="line"/>
      <point x="95" y="411" type="line"/>
      <point x="88" y="367" type="line"/>
      <point x="211" y="429" type="line"/>
      <point x="193" y="316" type="line"/>
      <point x="70" y="253" type="line"/>
      <point x="63" y="209" type="line"/>
      <point x="187" y="272" type="line"/>
    </contour>
  </outline>
</glyph>
<glyph name="product" format="2">
  <advance width="600"/>
  <unicode hex="220F"/>
  <outline>
    <contour>
      <point x="-11" y="-180" type="line"/>
      <point x="31" y="-180" type="line"/>
      <point x="165" y="666" type="line"/>
      <point x="569" y="666" type="line"/>
      <point x="435" y="-180" type="line"/>
      <point x="477" y="-180" type="line"/>
      <point x="617" y="705" type="line"/>
      <point x="129" y="705" type="line"/>
    </contour>
  </outline>
</glyph>
<glyph name="divisionslash" format="2">
  <advance width="600"/>
  <unicode hex="2215"/>
  <outline>
    <contour>
      <point x="145" y="-55" type="line"/>
      <point x="523" y="728" type="line"/>
      <point x="487" y="744" type="line"/>
      <point x="108" y="-39" type="line"/>
    </contour>
  </outline>
</glyph>
<glyph name="notequal" format="2">
  <advance width="600"/>
  <unicode hex="2260"/>
  <outline>
    <contour>
      <point x="173" y="29" type="line"/>
      <point x="253" y="168" type="line"/>
      <point x="532" y="168" type="line"/>
      <point x="538" y="207" type="line"/>
      <point x="276" y="207" type="line"/>
      <point x="369" y="367" type="line"/>
      <point x="563" y="367" type="line"/>
      <point x="569" y="406" type="line"/>
      <point x="391" y="406" type="line"/>
      <point x="459" y="523" type="line"/>
      <point x="427" y="545" type="line"/>
      <point x="347" y="406" type="line"/>
      <point x="81" y="406" type="line"/>
      <point x="75" y="367" type="line"/>
      <point x="324" y="367" type="line"/>
      <point x="231" y="207" type="line"/>
      <point x="50" y="207" type="line"/>
      <point x="44" y="168" type="line"/>
      <point x="209" y="168" type="line"/>
      <point x="141" y="51" type="line"/>
    </contour>
  </outline>
</glyph>
<glyph name="lessequal" format="2">
  <advance width="600"/>
  <unicode hex="2264"/>
  <outline>
    <contour>
      <point x="522" y="107" type="line"/>
      <point x="529" y="150" type="line"/>
      <point x="108" y="329" type="line"/>
      <point x="104" y="307" type="line"/>
      <point x="583" y="486" type="line"/>
      <point x="590" y="533" type="line"/>
      <point x="72" y="338" type="line"/>
      <point x="66" y="302" type="line"/>
    </contour>
    <contour>
      <point x="18" y="0" type="line"/>
      <point x="505" y="0" type="line"/>
      <point x="511" y="39" type="line"/>
      <point x="24" y="39" type="line"/>
    </contour>
  </outline>
</glyph>
<glyph name="__Zedescener-cy.case" format="2">
  <advance width="157"/>
  <anchor x="52" y="0" name="_bottom"/>
  <outline>
    <contour>
      <point x="9" y="-150" type="line"/>
      <point x="49" y="-150" type="line"/>
      <point x="74" y="13" type="line"/>
      <point x="34" y="13" type="line"/>
    </contour>
  </outline>
</glyph>
<glyph name="__Zedescener-cy" format="2">
  <advance width="500"/>
  <anchor x="211" y="0" name="_bottom"/>
  <outline>
    <contour>
      <point x="171" y="-130" type="line"/>
      <point x="211" y="-130" type="line"/>
      <point x="235" y="24" type="line"/>
      <point x="195" y="24" type="line"/>
    </contour>
  </outline>
</glyph>
<glyph name="__tail-cy.case" format="2">
  <advance width="10"/>
  <anchor x="-38" y="0" name="_bottomright"/>
  <outline>
    <contour>
      <point x="-24" y="-150" type="line"/>
      <point x="16" y="-150" type="line"/>
      <point x="109" y="39" type="line"/>
      <point x="-32" y="39" type="line"/>
      <point x="-38" y="0" type="line"/>
      <point x="50" y="0" type="line"/>
    </contour>
  </outline>
</glyph>
<glyph name="brevecomb.case" format="2">
  <anchor x="0" y="705" name="_top"/>
  <anchor x="17" y="865" name="top"/>
  <outline>
    <contour>
      <point x="13" y="760" type="curve" smooth="yes"/>
      <point x="98" y="760"/>
      <point x="167" y="823"/>
      <point x="184" y="927" type="curve"/>
      <point x="151" y="931" type="line"/>
      <point x="138" y="845"/>
      <point x="87" y="796"/>
      <point x="16" y="796" type="curve" smooth="yes"/>
      <point x="-55" y="796"/>
      <point x="-101" y="845"/>
      <point x="-97" y="931" type="curve"/>
      <point x="-130" y="927" type="line"/>
      <point x="-133" y="823"/>
      <point x="-72" y="760"/>
    </contour>
  </outline>
</glyph>
<glyph name="brevecomb_tildecomb.case" format="2">
  <anchor x="0" y="705" name="_top"/>
  <outline>
    <contour>
      <point x="6" y="760" type="curve" smooth="yes"/>
      <point x="79" y="760"/>
      <point x="134" y="801"/>
      <point x="156" y="867" type="curve"/>
      <point x="123" y="871" type="line"/>
      <point x="104" y="823"/>
      <point x="62" y="796"/>
      <point x="6" y="796" type="curve" smooth="yes"/>
      <point x="-50" y="796"/>
      <point x="-88" y="823"/>
      <point x="-99" y="871" type="curve"/>
      <point x="-132" y="867" type="line"/>
      <point x="-121" y="800"/>
      <point x="-67" y="760"/>
    </contour>
    <contour>
      <point x="-95" y="918" type="line"/>
      <point x="-85" y="962"/>
      <point x="-70" y="980"/>
      <point x="-40" y="980" type="curve" smooth="yes"/>
      <point x="-21" y="980"/>
      <point x="-2" y="967"/>
      <point x="17" y="953" type="curve" smooth="yes"/>
      <point x="40" y="937"/>
      <point x="64" y="920"/>
      <point x="94" y="920" type="curve" smooth="yes"/>
      <point x="139" y="920"/>
      <point x="169" y="952"/>
      <point x="180" y="1016" type="curve"/>
      <point x="147" y="1018" type="line"/>
      <point x="136" y="974"/>
      <point x="122" y="956"/>
      <point x="92" y="956" type="curve" smooth="yes"/>
      <point x="72" y="956"/>
      <point x="54" y="969"/>
      <point x="35" y="983" type="curve" smooth="yes"/>
      <point x="12" y="999"/>
      <point x="-12" y="1016"/>
      <point x="-41" y="1016" type="curve" smooth="yes"/>
      <point x="-87" y="1016"/>
      <point x="-117" y="984"/>
      <point x="-128" y="920" type="curve"/>
    </contour>
  </outline>
</glyph>
<glyph name="brevecomb_tildecomb" format="2">
  <anchor x="0" y="484" name="_top"/>
  <outline>
    <contour>
      <point x="11" y="547" type="curve" smooth="yes"/>
      <point x="84" y="547"/>
      <point x="139" y="588"/>
      <point x="161" y="654" type="curve"/>
      <point x="128" y="658" type="line"/>
      <point x="109" y="610"/>
      <point x="67" y="583"/>
      <point x="11" y="583" type="curve" smooth="yes"/>
      <point x="-45" y="583"/>
      <point x="-83" y="610"/>
      <point x="-94" y="658" type="curve"/>
      <point x="-127" y="654" type="line"/>
      <point x="-116" y="587"/>
      <point x="-62" y="547"/>
    </contour>
    <contour>
      <point x="-90" y="705" type="line"/>
      <point x="-80" y="749"/>
      <point x="-65" y="767"/>
      <point x="-35" y="767" type="curve" smooth="yes"/>
      <point x="-16" y="767"/>
      <point x="3" y="754"/>
      <point x="22" y="740" type="curve" smooth="yes"/>
      <point x="45" y="724"/>
      <point x="69" y="707"/>
      <point x="99" y="707" type="curve" smooth="yes"/>
      <point x="144" y="707"/>
      <point x="174" y="739"/>
      <point x="185" y="803" type="curve"/>
      <point x="152" y="805" type="line"/>
      <point x="141" y="761"/>
      <point x="127" y="743"/>
      <point x="97" y="743" type="curve" smooth="yes"/>
      <point x="77" y="743"/>
      <point x="59" y="756"/>
      <point x="40" y="770" type="curve" smooth="yes"/>
      <point x="17" y="786"/>
      <point x="-7" y="803"/>
      <point x="-36" y="803" type="curve" smooth="yes"/>
      <point x="-82" y="803"/>
      <point x="-112" y="771"/>
      <point x="-123" y="707" type="curve"/>
    </contour>
  </outline>
</glyph>
<glyph name="circumflexcomb_acutecomb" format="2">
  <anchor x="0" y="484" name="_top"/>
  <outline>
    <contour>
      <point x="-131" y="549" type="line"/>
      <point x="-97" y="549" type="line"/>
      <point x="14" y="672" type="line"/>
      <point x="101" y="549" type="line"/>
      <point x="135" y="549" type="line"/>
      <point x="40" y="709" type="line"/>
      <point x="-8" y="709" type="line"/>
    </contour>
    <contour>
      <point x="92" y="650" type="line"/>
      <point x="128" y="650" type="line"/>
      <point x="247" y="800" type="line"/>
      <point x="192" y="800" type="line"/>
    </contour>
  </outline>
</glyph>
<glyph name="circumflexcomb_hookabovecomb.case" format="2">
  <anchor x="0" y="705" name="_top"/>
  <outline>
    <contour>
      <point x="-128" y="765" type="line"/>
      <point x="-94" y="765" type="line"/>
      <point x="17" y="888" type="line"/>
      <point x="104" y="765" type="line"/>
      <point x="138" y="765" type="line"/>
      <point x="43" y="925" type="line"/>
      <point x="-5" y="925" type="line"/>
    </contour>
    <contour>
      <point x="107" y="866" type="curve"/>
      <point x="141" y="866" type="line"/>
      <point x="145" y="918"/>
      <point x="222" y="912"/>
      <point x="222" y="972" type="curve" smooth="yes"/>
      <point x="222" y="1002"/>
      <point x="192" y="1020"/>
      <point x="139" y="1020" type="curve" smooth="yes"/>
      <point x="111" y="1020"/>
      <point x="84" y="1015"/>
      <point x="62" y="1004" type="curve"/>
      <point x="68" y="975" type="line"/>
      <point x="89" y="982"/>
      <point x="117" y="987"/>
      <point x="140" y="987" type="curve" smooth="yes"/>
      <point x="164" y="987"/>
      <point x="183" y="982"/>
      <point x="183" y="967" type="curve" smooth="yes"/>
      <point x="183" y="930"/>
      <point x="112" y="933"/>
    </contour>
  </outline>
</glyph>
<glyph name="commaturnedabovecomb.case" format="2">
  <anchor x="0" y="705" name="_top"/>
  <anchor x="25" y="865" name="top"/>
  <outline>
    <contour>
      <point x="-25" y="765" type="line"/>
      <point x="45" y="765" type="line"/>
      <point x="55" y="830" type="line"/>
      <point x="5" y="830" type="line"/>
      <point x="19" y="823" type="line"/>
      <point x="24" y="856"/>
      <point x="35" y="883"/>
      <point x="72" y="918" type="curve"/>
      <point x="49" y="938" type="line"/>
      <point x="13" y="906"/>
      <point x="-10" y="864"/>
      <point x="-17" y="819" type="curve" smooth="yes"/>
    </contour>
  </outline>
</glyph>
<glyph name="dieresiscomb_acutecomb" format="2">
  <anchor x="0" y="484" name="_top"/>
  <outline>
    <contour>
      <point x="8" y="650" type="line"/>
      <point x="44" y="650" type="line"/>
      <point x="174" y="800" type="line"/>
      <point x="119" y="800" type="line"/>
    </contour>
    <contour>
      <point x="-101" y="550" type="line"/>
      <point x="-40" y="550" type="line"/>
      <point x="-30" y="610" type="line"/>
      <point x="-91" y="610" type="line"/>
    </contour>
    <contour>
      <point x="60" y="550" type="line"/>
      <point x="121" y="550" type="line"/>
      <point x="131" y="610" type="line"/>
      <point x="70" y="610" type="line"/>
    </contour>
  </outline>
</glyph>
<glyph name="dieresiscomb_macroncomb.case" format="2">
  <anchor x="0" y="705" name="_top"/>
  <outline>
    <contour>
      <point x="-105" y="927" type="line"/>
      <point x="175" y="927" type="line"/>
      <point x="181" y="965" type="line"/>
      <point x="-99" y="965" type="line"/>
    </contour>
    <contour>
      <point x="-95" y="806" type="line"/>
      <point x="-34" y="806" type="line"/>
      <point x="-24" y="866" type="line"/>
      <point x="-85" y="866" type="line"/>
    </contour>
    <contour>
      <point x="66" y="806" type="line"/>
      <point x="127" y="806" type="line"/>
      <point x="137" y="866" type="line"/>
      <point x="76" y="866" type="line"/>
    </contour>
  </outline>
</glyph>
<glyph name="dieresiscomb_macroncomb" format="2">
  <anchor x="0" y="484" name="_top"/>
  <outline>
    <contour>
      <point x="-105" y="706" type="line"/>
      <point x="175" y="706" type="line"/>
      <point x="181" y="744" type="line"/>
      <point x="-99" y="744" type="line"/>
    </contour>
    <contour>
      <point x="-95" y="585" type="line"/>
      <point x="-34" y="585" type="line"/>
      <point x="-25" y="645" type="line"/>
      <point x="-86" y="645" type="line"/>
    </contour>
    <contour>
      <point x="66" y="585" type="line"/>
      <point x="127" y="585" type="line"/>
      <point x="136" y="645" type="line"/>
      <point x="75" y="645" type="line"/>
    </contour>
  </outline>
</glyph>
<glyph name="dotaccentcomb_macroncomb.case" format="2">
  <anchor x="0" y="705" name="_top"/>
  <outline>
    <contour>
      <point x="-105" y="927" type="line"/>
      <point x="175" y="927" type="line"/>
      <point x="181" y="965" type="line"/>
      <point x="-99" y="965" type="line"/>
    </contour>
    <contour>
      <point x="-14" y="806" type="line"/>
      <point x="47" y="806" type="line"/>
      <point x="57" y="866" type="line"/>
      <point x="-4" y="866" type="line"/>
    </contour>
  </outline>
</glyph>
<glyph name="five.dnom" format="2">
  <advance width="380"/>
  <outline>
    <contour>
      <point x="162" y="-3" type="curve" smooth="yes"/>
      <point x="246" y="-3"/>
      <point x="319" y="57"/>
      <point x="321" y="146" type="curve" smooth="yes"/>
      <point x="323" y="226"/>
      <point x="270" y="265"/>
      <point x="207" y="265" type="curve" smooth="yes"/>
      <point x="163" y="265"/>
      <point x="119" y="252"/>
      <point x="92" y="217" type="curve"/>
      <point x="101" y="217" type="line"/>
      <point x="128" y="386" type="line"/>
      <point x="337" y="386" type="line"/>
      <point x="343" y="423" type="line"/>
      <point x="96" y="423" type="line"/>
      <point x="58" y="182" type="line"/>
      <point x="89" y="182" type="line"/>
      <point x="119" y="216"/>
      <point x="152" y="228"/>
      <point x="196" y="228" type="curve" smooth="yes"/>
      <point x="249" y="228"/>
      <point x="281" y="194"/>
      <point x="279" y="142" type="curve" smooth="yes"/>
      <point x="277" y="79"/>
      <point x="227" y="34"/>
      <point x="163" y="34" type="curve" smooth="yes"/>
      <point x="118" y="34"/>
      <point x="84" y="42"/>
      <point x="45" y="80" type="curve"/>
      <point x="25" y="49" type="line"/>
      <point x="62" y="10"/>
      <point x="113" y="-3"/>
    </contour>
  </outline>
</glyph>
<glyph name="horncomb.O.case" format="2">
  <anchor x="0" y="705" name="_topright"/>
  <outline>
    <contour>
      <point x="29" y="667" type="line"/>
      <point x="85" y="667" type="line" smooth="yes"/>
      <point x="187" y="667"/>
      <point x="238" y="719"/>
      <point x="253" y="817" type="curve" smooth="yes"/>
      <point x="256" y="837" type="line"/>
      <point x="216" y="837" type="line"/>
      <point x="214" y="825" type="line" smooth="yes"/>
      <point x="201" y="747"/>
      <point x="172" y="705"/>
      <point x="75" y="705" type="curve" smooth="yes"/>
      <point x="46" y="705"/>
      <point x="20" y="706"/>
      <point x="-18" y="709" type="curve"/>
    </contour>
  </outline>
</glyph>
<glyph name="horncomb.case" format="2">
  <anchor x="0" y="705" name="_topright"/>
  <outline>
    <contour>
      <point x="9" y="667" type="line"/>
      <point x="104" y="671"/>
      <point x="164" y="723"/>
      <point x="178" y="817" type="curve" smooth="yes"/>
      <point x="181" y="837" type="line"/>
      <point x="141" y="837" type="line"/>
      <point x="139" y="825" type="line" smooth="yes"/>
      <point x="126" y="748"/>
      <point x="97" y="706"/>
      <point x="0" y="705" type="curve"/>
      <point x="-4" y="680" type="line"/>
    </contour>
  </outline>
</glyph>
<glyph name="macroncomb_gravecomb.case" format="2">
  <anchor x="0" y="705" name="_top"/>
  <outline>
    <contour>
      <point x="8" y="871" type="line"/>
      <point x="44" y="871" type="line"/>
      <point x="-41" y="1021" type="line"/>
      <point x="-94" y="1021" type="line"/>
    </contour>
    <contour>
      <point x="-126" y="796" type="line"/>
      <point x="154" y="796" type="line"/>
      <point x="160" y="834" type="line"/>
      <point x="-120" y="834" type="line"/>
    </contour>
  </outline>
</glyph>
<glyph name="nine.dnom" format="2">
  <advance width="380"/>
  <outline>
    <contour>
      <point x="132" y="-3" type="curve" smooth="yes"/>
      <point x="263" y="-3"/>
      <point x="330" y="126"/>
      <point x="335" y="272" type="curve" smooth="yes"/>
      <point x="338" y="368"/>
      <point x="284" y="427"/>
      <point x="200" y="427" type="curve" smooth="yes"/>
      <point x="117" y="427"/>
      <point x="54" y="363"/>
      <point x="51" y="277" type="curve" smooth="yes"/>
      <point x="49" y="210"/>
      <point x="97" y="159"/>
      <point x="167" y="159" type="curve" smooth="yes"/>
      <point x="229" y="159"/>
      <point x="295" y="195"/>
      <point x="306" y="267" type="curve"/>
      <point x="295" y="268" type="line"/>
      <point x="294" y="251" type="line" smooth="yes"/>
      <point x="284" y="119"/>
      <point x="223" y="33"/>
      <point x="136" y="33" type="curve" smooth="yes"/>
      <point x="97" y="33"/>
      <point x="61" y="49"/>
      <point x="32" y="82" type="curve"/>
      <point x="12" y="51" type="line"/>
      <point x="41" y="17"/>
      <point x="87" y="-3"/>
    </contour>
    <contour>
      <point x="177" y="195" type="curve" smooth="yes"/>
      <point x="127" y="195"/>
      <point x="90" y="229"/>
      <point x="91" y="280" type="curve" smooth="yes"/>
      <point x="92" y="342"/>
      <point x="137" y="391"/>
      <point x="201" y="391" type="curve" smooth="yes"/>
      <point x="251" y="391"/>
      <point x="288" y="357"/>
      <point x="287" y="306" type="curve" smooth="yes"/>
      <point x="286" y="244"/>
      <point x="241" y="195"/>
    </contour>
  </outline>
</glyph>
<glyph name="one.tosf.ss01" format="2">
  <advance width="600"/>
  <outline>
    <contour>
      <point x="269" y="0" type="line"/>
      <point x="311" y="0" type="line"/>
      <point x="388" y="484" type="line"/>
      <point x="357" y="484" type="line"/>
      <point x="158" y="363" type="line"/>
      <point x="175" y="330" type="line"/>
      <point x="369" y="447" type="line"/>
      <point x="340" y="447" type="line"/>
    </contour>
  </outline>
</glyph>
<glyph name="periodcentered.loclCAT" format="2">
  <guideline x="42" y="387" angle="81"/>
  <anchor x="18" y="353" name="_dot"/>
  <outline>
    <contour>
      <point x="-22" y="319" type="line"/>
      <point x="46" y="319" type="line"/>
      <point x="57" y="387" type="line"/>
      <point x="-11" y="387" type="line"/>
    </contour>
  </outline>
</glyph>
<glyph name="ringcomb.case" format="2">
  <anchor x="0" y="705" name="_top"/>
  <anchor x="25" y="865" name="top"/>
  <outline>
    <contour>
      <point x="27" y="760" type="curve" smooth="yes"/>
      <point x="90" y="760"/>
      <point x="139" y="809"/>
      <point x="139" y="870" type="curve" smooth="yes"/>
      <point x="139" y="931"/>
      <point x="90" y="980"/>
      <point x="27" y="980" type="curve" smooth="yes"/>
      <point x="-36" y="980"/>
      <point x="-85" y="931"/>
      <point x="-85" y="870" type="curve" smooth="yes"/>
      <point x="-85" y="809"/>
      <point x="-36" y="760"/>
    </contour>
    <contour>
      <point x="27" y="792" type="curve" smooth="yes"/>
      <point x="-19" y="792"/>
      <point x="-51" y="826"/>
      <point x="-51" y="870" type="curve" smooth="yes"/>
      <point x="-51" y="914"/>
      <point x="-19" y="948"/>
      <point x="27" y="948" type="curve" smooth="yes"/>
      <point x="73" y="948"/>
      <point x="105" y="914"/>
      <point x="105" y="870" type="curve" smooth="yes"/>
      <point x="105" y="826"/>
      <point x="73" y="792"/>
    </contour>
  </outline>
</glyph>
<glyph name="ringcomb_acutecomb.case" format="2">
  <anchor x="0" y="705" name="_top"/>
  <outline>
    <contour>
      <point x="9" y="760" type="curve" smooth="yes"/>
      <point x="72" y="760"/>
      <point x="121" y="809"/>
      <point x="121" y="870" type="curve" smooth="yes"/>
      <point x="121" y="894"/>
      <point x="114" y="916"/>
      <point x="101" y="934" type="curve"/>
      <point x="214" y="1029" type="line"/>
      <point x="153" y="1029" type="line"/>
      <point x="77" y="958" type="line"/>
      <point x="58" y="972"/>
      <point x="35" y="980"/>
      <point x="9" y="980" type="curve" smooth="yes"/>
      <point x="-54" y="980"/>
      <point x="-103" y="931"/>
      <point x="-103" y="870" type="curve" smooth="yes"/>
      <point x="-103" y="809"/>
      <point x="-54" y="760"/>
    </contour>
    <contour>
      <point x="9" y="792" type="curve" smooth="yes"/>
      <point x="-37" y="792"/>
      <point x="-69" y="826"/>
      <point x="-69" y="870" type="curve" smooth="yes"/>
      <point x="-69" y="914"/>
      <point x="-37" y="948"/>
      <point x="9" y="948" type="curve" smooth="yes"/>
      <point x="55" y="948"/>
      <point x="87" y="914"/>
      <point x="87" y="870" type="curve" smooth="yes"/>
      <point x="87" y="826"/>
      <point x="55" y="792"/>
    </contour>
  </outline>
</glyph>
<glyph name="six.tosf" format="2">
  <advance width="600"/>
  <guideline x="589" y="603" angle="236.6894"/>
  <outline>
    <contour>
      <point x="304" y="-8" type="curve" smooth="yes"/>
      <point x="437" y="-8"/>
      <point x="535" y="96"/>
      <point x="535" y="237" type="curve" smooth="yes"/>
      <point x="535" y="350"/>
      <point x="452" y="430"/>
      <point x="339" y="430" type="curve" smooth="yes"/>
      <point x="235" y="430"/>
      <point x="137" y="360"/>
      <point x="117" y="241" type="curve"/>
      <point x="125" y="241" type="line"/>
      <point x="126" y="267" type="line" smooth="yes"/>
      <point x="136" y="515"/>
      <point x="247" y="674"/>
      <point x="401" y="674" type="curve" smooth="yes"/>
      <point x="470" y="674"/>
      <point x="521" y="650"/>
      <point x="570" y="594" type="curve"/>
      <point x="592" y="625" type="line"/>
      <point x="547" y="681"/>
      <point x="481" y="713"/>
      <point x="406" y="713" type="curve" smooth="yes"/>
      <point x="197" y="713"/>
      <point x="86" y="494"/>
      <point x="86" y="247" type="curve" smooth="yes"/>
      <point x="86" y="90"/>
      <point x="172" y="-8"/>
    </contour>
    <contour>
      <point x="300" y="31" type="curve" smooth="yes"/>
      <point x="210" y="31"/>
      <point x="142" y="95"/>
      <point x="142" y="187" type="curve" smooth="yes"/>
      <point x="142" y="298"/>
      <point x="219" y="391"/>
      <point x="334" y="391" type="curve" smooth="yes"/>
      <point x="424" y="391"/>
      <point x="492" y="326"/>
      <point x="492" y="234" type="curve" smooth="yes"/>
      <point x="492" y="123"/>
      <point x="415" y="31"/>
    </contour>
  </outline>
</glyph>
<glyph name="three.tosf" format="2">
  <advance width="600"/>
  <outline>
    <contour>
      <point x="251" y="-188" type="curve" smooth="yes"/>
      <point x="381" y="-188"/>
      <point x="478" y="-109"/>
      <point x="478" y="14" type="curve" smooth="yes"/>
      <point x="478" y="87"/>
      <point x="434" y="143"/>
      <point x="351" y="162" type="curve"/>
      <point x="350" y="152" type="line"/>
      <point x="445" y="170"/>
      <point x="512" y="246"/>
      <point x="512" y="342" type="curve" smooth="yes"/>
      <point x="512" y="444"/>
      <point x="430" y="492"/>
      <point x="331" y="492" type="curve" smooth="yes"/>
      <point x="263" y="492"/>
      <point x="184" y="469"/>
      <point x="119" y="426" type="curve"/>
      <point x="136" y="391" type="line"/>
      <point x="195" y="430"/>
      <point x="270" y="453"/>
      <point x="331" y="453" type="curve" smooth="yes"/>
      <point x="407" y="453"/>
      <point x="468" y="419"/>
      <point x="468" y="340" type="curve" smooth="yes"/>
      <point x="468" y="239"/>
      <point x="387" y="176"/>
      <point x="273" y="176" type="curve" smooth="yes"/>
      <point x="181" y="176" type="line"/>
      <point x="175" y="139" type="line"/>
      <point x="271" y="139" type="line" smooth="yes"/>
      <point x="376" y="139"/>
      <point x="434" y="91"/>
      <point x="434" y="16" type="curve" smooth="yes"/>
      <point x="434" y="-87"/>
      <point x="362" y="-149"/>
      <point x="251" y="-149" type="curve" smooth="yes"/>
      <point x="171" y="-149"/>
      <point x="111" y="-128"/>
      <point x="41" y="-68" type="curve"/>
      <point x="19" y="-99" type="line"/>
      <point x="85" y="-161"/>
      <point x="168" y="-188"/>
    </contour>
  </outline>
</glyph>
<glyph name="tildecomb.case.O" format="2">
  <anchor x="0" y="705" name="_top"/>
  <anchor x="25" y="865" name="top"/>
  <outline>
    <contour>
      <point x="-131" y="792" type="line"/>
      <point x="-118" y="848"/>
      <point x="-92" y="879"/>
      <point x="-52" y="879" type="curve" smooth="yes"/>
      <point x="-28" y="879"/>
      <point x="-9" y="861"/>
      <point x="11" y="841" type="curve" smooth="yes"/>
      <point x="34" y="819"/>
      <point x="59" y="794"/>
      <point x="98" y="794" type="curve" smooth="yes"/>
      <point x="156" y="794"/>
      <point x="196" y="838"/>
      <point x="211" y="915" type="curve"/>
      <point x="179" y="917" type="line"/>
      <point x="166" y="861"/>
      <point x="140" y="830"/>
      <point x="100" y="830" type="curve" smooth="yes"/>
      <point x="75" y="830"/>
      <point x="57" y="848"/>
      <point x="37" y="868" type="curve" smooth="yes"/>
      <point x="14" y="891"/>
      <point x="-11" y="915"/>
      <point x="-49" y="915" type="curve" smooth="yes"/>
      <point x="-108" y="915"/>
      <point x="-148" y="871"/>
      <point x="-163" y="794" type="curve"/>
    </contour>
  </outline>
</glyph>
<glyph name="two.dnom" format="2">
  <advance width="380"/>
  <outline>
    <contour>
      <point x="20" y="0" type="line"/>
      <point x="290" y="0" type="line"/>
      <point x="296" y="37" type="line"/>
      <point x="67" y="37" type="line"/>
      <point x="67" y="22" type="line"/>
      <point x="219" y="160" type="line" smooth="yes"/>
      <point x="277" y="213"/>
      <point x="323" y="262"/>
      <point x="325" y="329" type="curve" smooth="yes"/>
      <point x="327" y="387"/>
      <point x="282" y="427"/>
      <point x="210" y="427" type="curve" smooth="yes"/>
      <point x="155" y="427"/>
      <point x="103" y="407"/>
      <point x="64" y="373" type="curve"/>
      <point x="78" y="340" type="line"/>
      <point x="117" y="372"/>
      <point x="160" y="390"/>
      <point x="204" y="390" type="curve" smooth="yes"/>
      <point x="255" y="390"/>
      <point x="284" y="366"/>
      <point x="283" y="325" type="curve" smooth="yes"/>
      <point x="282" y="275"/>
      <point x="245" y="231"/>
      <point x="195" y="186" type="curve" smooth="yes"/>
      <point x="25" y="30" type="line"/>
    </contour>
  </outline>
</glyph>
<glyph name="two.tosf" format="2">
  <advance width="600"/>
  <guideline x="234" y="71" angle="25.7163"/>
  <outline>
    <contour>
      <point x="74" y="0" type="line"/>
      <point x="464" y="0" type="line"/>
      <point x="470" y="37" type="line"/>
      <point x="125" y="37" type="line"/>
      <point x="122" y="16" type="line"/>
      <point x="384" y="140"/>
      <point x="503" y="244"/>
      <point x="503" y="362" type="curve" smooth="yes"/>
      <point x="503" y="450"/>
      <point x="427" y="492"/>
      <point x="335" y="492" type="curve" smooth="yes"/>
      <point x="266" y="492"/>
      <point x="188" y="469"/>
      <point x="123" y="426" type="curve"/>
      <point x="140" y="391" type="line"/>
      <point x="198" y="430"/>
      <point x="273" y="453"/>
      <point x="337" y="453" type="curve" smooth="yes"/>
      <point x="405" y="453"/>
      <point x="460" y="425"/>
      <point x="460" y="362" type="curve" smooth="yes"/>
      <point x="460" y="256"/>
      <point x="351" y="162"/>
      <point x="79" y="31" type="curve"/>
    </contour>
  </outline>
</glyph>
<glyph name="zero.tosf" format="2">
  <advance width="600"/>
  <outline>
    <contour>
      <point x="276" y="-8" type="curve" smooth="yes"/>
      <point x="428" y="-8"/>
      <point x="536" y="117"/>
      <point x="536" y="274" type="curve" smooth="yes"/>
      <point x="536" y="406"/>
      <point x="461" y="492"/>
      <point x="324" y="492" type="curve" smooth="yes"/>
      <point x="172" y="492"/>
      <point x="64" y="367"/>
      <point x="64" y="210" type="curve" smooth="yes"/>
      <point x="64" y="78"/>
      <point x="139" y="-8"/>
    </contour>
    <contour>
      <point x="279" y="31" type="curve" smooth="yes"/>
      <point x="163" y="31"/>
      <point x="107" y="99"/>
      <point x="107" y="210" type="curve" smooth="yes"/>
      <point x="107" y="338"/>
      <point x="193" y="453"/>
      <point x="321" y="453" type="curve" smooth="yes"/>
      <point x="437" y="453"/>
      <point x="493" y="385"/>
      <point x="493" y="274" type="curve" smooth="yes"/>
      <point x="493" y="146"/>
      <point x="407" y="31"/>
    </contour>
  </outline>
</glyph>
